<?xml version="1.0" encoding="UTF-8"?>
<svg version="1.1" xmlns="http://www.w3.org/2000/svg" width="3000" height="2000">
<path d="M0 0 C1.47418396 0.00273422 1.47418396 0.00273422 2.97814941 0.00552368 C18.82841753 0.05484091 34.3330824 0.71709999 50 3.3125 C51.54228271 3.56193359 51.54228271 3.56193359 53.11572266 3.81640625 C105.60598446 12.59322662 152.05411146 36.62066477 192 71.3125 C192.99257813 72.1684375 193.98515625 73.024375 195.0078125 73.90625 C195.91273438 74.7003125 196.81765625 75.494375 197.75 76.3125 C198.54921875 77.01375 199.3484375 77.715 200.171875 78.4375 C202 80.3125 202 80.3125 203 83.3125 C202.32565163 83.88087837 202.32565163 83.88087837 201.63768005 84.46073914 C195.46227922 89.75626806 189.71424737 95.45217834 183.97265625 101.20703125 C182.93287978 102.24613266 181.89295502 103.28508571 180.85289001 104.32389832 C178.69058415 106.48474068 176.53007046 108.64735436 174.37084961 110.8112793 C171.60127373 113.5865948 168.82717384 116.35733832 166.05175114 119.12680531 C163.91131591 121.26363489 161.77325819 123.4028305 159.63592339 125.54276085 C158.61316779 126.56618349 157.58966892 127.58886391 156.56541634 128.61078835 C155.14153708 130.03213646 153.72119152 131.45702192 152.30102539 132.88208008 C151.49242569 133.69147537 150.68382599 134.50087067 149.85072327 135.33479309 C147.94724454 137.18084029 147.94724454 137.18084029 147 139.3125 C142.17724117 137.8326886 139.33703417 135.12054441 135.8125 131.6875 C132.4419541 127.86168681 132.4419541 127.86168681 128 126.3125 C126.32749568 124.65169151 124.66196524 122.98385487 123 121.3125 C105.29968146 107.72630955 84.33944745 97.60866736 63 91.3125 C62.20932129 91.07595703 61.41864258 90.83941406 60.60400391 90.59570312 C22.01386941 79.24427631 -19.33105617 79.27597246 -58 90.3125 C-58.83772949 90.5492041 -59.67545898 90.7859082 -60.53857422 91.02978516 C-93.1757246 100.49299718 -123.02340604 118.26302886 -147 142.3125 C-147.75539063 143.03308594 -148.51078125 143.75367188 -149.2890625 144.49609375 C-154.20321751 149.2376781 -158.64802249 154.14301718 -162.875 159.5 C-163.32697754 160.06968506 -163.77895508 160.63937012 -164.24462891 161.22631836 C-166.47537218 164.10682901 -168.43308249 166.98407843 -170.1953125 170.17578125 C-172 173.3125 -172 173.3125 -174 174.3125 C-175.38525284 176.62797461 -176.70347716 178.94870664 -178 181.3125 C-178.64839844 182.42109375 -179.29679687 183.5296875 -179.96484375 184.671875 C-183.69956163 191.09115246 -187.12437324 197.43206528 -189.9921875 204.30078125 C-191 206.3125 -191 206.3125 -193 207.3125 C-193.37902678 208.96937283 -193.70357537 210.63887479 -194 212.3125 C-194.60044898 214.17263096 -195.23335568 216.02245991 -195.890625 217.86328125 C-215.8842135 274.98172588 -214.72869281 334.85824342 -188.6875 390.0625 C-178.50785901 411.05236385 -165.2257936 429.58074079 -149 446.3125 C-148.21882812 447.13363281 -147.43765625 447.95476562 -146.6328125 448.80078125 C-110.62342752 485.89941809 -58.18232076 506.53610709 -7 508.3125 C-5.21722656 508.374375 -5.21722656 508.374375 -3.3984375 508.4375 C49.04737148 509.30616764 98.14955658 493.67019595 138 459.3125 C138.77126221 458.65193604 138.77126221 458.65193604 139.55810547 457.97802734 C171.89405822 430.05196422 183.8814948 391.90502599 192 351.3125 C128.64 351.3125 65.28 351.3125 0 351.3125 C0 324.5825 0 297.8525 0 270.3125 C89.76 270.3125 179.52 270.3125 272 270.3125 C286.61812481 336.09406163 271.25203268 413.84814955 236.49365234 470.77978516 C231.46794369 478.64736205 225.85758473 485.99733803 219.77734375 493.078125 C217.96644083 495.18705335 217.96644083 495.18705335 216.98828125 497.40234375 C215.76834377 499.76024663 214.30503229 500.95628192 212.25 502.625 C209.57800816 504.8788924 207.21295618 507.10710027 205 509.8125 C202.33924099 513.02966438 199.41950318 515.68686171 196.23828125 518.3828125 C193.75785188 520.52126295 191.38793455 522.75885003 189 525 C182.58893845 530.86256961 175.65990248 535.98778286 168.64501953 541.10107422 C167.29497622 542.09527352 165.96986233 543.12324063 164.65234375 544.16015625 C163 545.3125 163 545.3125 161 545.3125 C161 545.9725 161 546.6325 161 547.3125 C159.948125 547.8075 158.89625 548.3025 157.8125 548.8125 C154.10682001 550.65242822 150.67010661 552.76881597 147.1875 555 C86.91832319 592.78584473 2.98318303 599.30297199 -65.34375 583.68359375 C-94.71520122 576.6758616 -123.78561938 566.6226213 -149.61474609 550.75366211 C-151.91303208 549.36504571 -154.24319335 548.07282822 -156.60546875 546.796875 C-161.06306815 544.34250414 -165.18522104 541.5322277 -169.3125 538.5625 C-170.04525146 538.03954346 -170.77800293 537.51658691 -171.53295898 536.9777832 C-173.69412037 535.43011279 -175.84871704 533.87386562 -178 532.3125 C-178.8981543 531.66063721 -178.8981543 531.66063721 -179.81445312 530.99560547 C-186.14672001 526.3760131 -192.18153863 521.56004763 -198 516.3125 C-199.394716 515.10287715 -200.7905529 513.89454554 -202.1875 512.6875 C-205.25312429 510.01106629 -208.12218537 507.19031463 -211 504.3125 C-211.78503906 503.71050781 -212.57007813 503.10851563 -213.37890625 502.48828125 C-216.07950463 500.24650286 -218.08197024 497.94170077 -220.25 495.1875 C-223.16330047 491.54467454 -226.132088 488.03629491 -229.3125 484.625 C-252.21409462 459.40930697 -270.81827722 427.40706646 -282 395.3125 C-282.35191406 394.30832031 -282.70382812 393.30414062 -283.06640625 392.26953125 C-286 383.71406794 -286 383.71406794 -286 380.3125 C-286.66 379.9825 -287.32 379.6525 -288 379.3125 C-288.71486939 376.9930766 -289.29186018 374.74040947 -289.8125 372.375 C-289.97991699 371.63427246 -290.14733398 370.89354492 -290.31982422 370.13037109 C-291.84513413 363.25187688 -293.25250131 356.34790095 -294.625 349.4375 C-294.8310083 348.42437744 -295.0370166 347.41125488 -295.24926758 346.36743164 C-298.50872078 329.53903462 -299.3801766 312.79391859 -299.3125 295.6875 C-299.31067719 294.72549683 -299.30885437 293.76349365 -299.30697632 292.77233887 C-299.25921831 277.75921265 -298.67637426 263.120563 -296 248.3125 C-295.82307617 247.31460449 -295.64615234 246.31670898 -295.46386719 245.28857422 C-292.9239765 231.34110888 -289.47411327 217.76101952 -285 204.3125 C-284.71817871 203.4551123 -284.43635742 202.59772461 -284.14599609 201.71435547 C-272.87086859 167.85161747 -255.13998591 136.47853076 -232 109.3125 C-231.12406706 108.25207202 -230.24911695 107.19083166 -229.375 106.12890625 C-218.90990312 93.53166137 -207.49519828 81.42452891 -194.56640625 71.328125 C-192.80793198 69.94704019 -191.08744607 68.5165883 -189.40234375 67.046875 C-151.92306419 34.36452151 -102.58354806 13.64636613 -54.125 4.5 C-52.57752075 4.20754395 -52.57752075 4.20754395 -50.9987793 3.90917969 C-34.02922542 0.89367015 -17.21142529 -0.06662464 0 0 Z " fill="#4185F4" transform="translate(645,619.6875)"/>
<path d="M0 0 C0.73856232 -0.00073517 1.47712463 -0.00147034 2.23806763 -0.00222778 C35.87319394 0.08504457 70.14423249 10.67545727 94.34643555 34.93603516 C95.73659721 36.35976442 97.10530866 37.80434616 98.47265625 39.25 C100.6308145 41.63617629 100.6308145 41.63617629 103.75 42.4375 C103.75 32.2075 103.75 21.9775 103.75 11.4375 C130.15 11.4375 156.55 11.4375 183.75 11.4375 C183.79418024 55.82063348 183.83107406 100.20374603 183.85213066 144.58689525 C183.85463175 149.8395871 183.85722043 155.09227891 183.85986328 160.3449707 C183.86065021 161.91339173 183.86065021 161.91339173 183.86145304 163.51349803 C183.87013006 180.3922987 183.88588497 197.27108559 183.90430559 214.14987812 C183.92308016 231.49908803 183.93413262 248.84829077 183.93817699 266.19751042 C183.94090646 276.88280746 183.94949288 287.56806555 183.96583293 298.25335058 C183.97649336 305.60381438 183.9795804 312.95425837 183.97700275 320.30472932 C183.97573538 324.53078189 183.97752662 328.75676694 183.98841095 332.98280716 C184.06993564 366.38339055 182.23107761 398.97421554 173.75 431.4375 C173.58790039 432.09089355 173.42580078 432.74428711 173.25878906 433.41748047 C172.81815569 435.10829292 172.29058255 436.77594199 171.75 438.4375 C171.09 438.7675 170.43 439.0975 169.75 439.4375 C169.62882812 440.24960938 169.50765625 441.06171875 169.3828125 441.8984375 C168.53156241 446.65913244 166.63624796 450.68585313 164.625 455.0625 C164.22120117 455.94969727 163.81740234 456.83689453 163.40136719 457.75097656 C160.24294122 464.58883167 156.75119891 471.05154663 152.75 477.4375 C152.02103516 478.675 152.02103516 478.675 151.27734375 479.9375 C150.1630023 481.80881392 148.96612946 483.63067909 147.75 485.4375 C147.09 485.4375 146.43 485.4375 145.75 485.4375 C145.50636719 485.98792969 145.26273438 486.53835938 145.01171875 487.10546875 C139.66619324 496.98558866 129.90176092 506.84533449 120.75 513.4375 C120.09 513.4375 119.43 513.4375 118.75 513.4375 C118.75 514.0975 118.75 514.7575 118.75 515.4375 C117.09765625 516.734375 117.09765625 516.734375 114.8125 518.1875 C113.71615234 518.89132812 113.71615234 518.89132812 112.59765625 519.609375 C111.65792969 520.21265625 110.71820312 520.8159375 109.75 521.4375 C109.09813721 521.88802734 108.44627441 522.33855469 107.7746582 522.80273438 C89.70238617 535.22058939 69.05762507 541.93117642 47.875 546.75 C46.75786621 547.00491211 45.64073242 547.25982422 44.48974609 547.52246094 C18.07188662 553.2625798 -14.11282055 553.40636103 -40.25 546.4375 C-41.56919434 546.10806396 -41.56919434 546.10806396 -42.91503906 545.77197266 C-63.97913297 540.48537147 -82.51211896 531.23188401 -101.25 520.4375 C-101.25 519.7775 -101.25 519.1175 -101.25 518.4375 C-101.82492187 518.17066406 -102.39984375 517.90382813 -102.9921875 517.62890625 C-125.90592157 505.537749 -146.5213376 479.11291398 -158.25 456.4375 C-158.25 455.7775 -158.25 455.1175 -158.25 454.4375 C-158.91 454.1075 -159.57 453.7775 -160.25 453.4375 C-160.25 452.4475 -160.25 451.4575 -160.25 450.4375 C-160.91 450.1075 -161.57 449.7775 -162.25 449.4375 C-163.3203125 447.22265625 -163.3203125 447.22265625 -164.375 444.5 C-164.72820312 443.60410156 -165.08140625 442.70820312 -165.4453125 441.78515625 C-166.25 439.4375 -166.25 439.4375 -166.25 437.4375 C-156.640625 433.43359375 -147.03125 429.4296875 -137.421875 425.42578125 C-136.37862061 424.99102478 -135.33536621 424.55626831 -134.26049805 424.1083374 C-132.14626994 423.22754486 -130.03184871 422.34721575 -127.91723633 421.46734619 C-122.39721012 419.16979612 -116.88120141 416.8632392 -111.37109375 414.54199219 C-110.26527954 414.0774765 -109.15946533 413.61296082 -108.0201416 413.1343689 C-105.8997048 412.24339464 -103.78043333 411.34964066 -101.66247559 410.45278931 C-100.71747192 410.05635223 -99.77246826 409.65991516 -98.79882812 409.25146484 C-97.96613403 408.90014496 -97.13343994 408.54882507 -96.2755127 408.18685913 C-94.25 407.4375 -94.25 407.4375 -92.25 407.4375 C-91.78851562 408.43007812 -91.32703125 409.42265625 -90.8515625 410.4453125 C-78.11106406 437.23089924 -58.30739009 458.43036635 -30.171875 469.0390625 C-3.62307705 478.29371488 27.42882684 475.85195719 52.65625 463.71240234 C74.05961746 452.85684468 88.24646407 434.09472119 95.8898468 411.63897705 C101.41994831 394.56758142 102.32770642 377.10954179 102.9375 359.3125 C103.01913346 357.17834504 103.10180971 355.0442297 103.18554688 352.91015625 C103.38568135 347.75298035 103.57184083 342.59547987 103.75 337.4375 C99.60154443 339.36778009 98.01232119 341.60326873 95.5078125 345.3671875 C93.25291634 348.02295408 90.68001474 349.5656475 87.75 351.4375 C85.97359186 352.82623162 84.20294254 354.22235463 82.4375 355.625 C71.99536116 363.49556733 60.22402348 369.51973262 47.75 373.4375 C46.33654297 373.94023438 46.33654297 373.94023438 44.89453125 374.453125 C4.95178668 388.02049578 -39.79888315 380.20740072 -76.9296875 362.19140625 C-101.91904482 349.71704001 -124.2011158 331.58460359 -141.25 309.4375 C-141.69182617 308.87160156 -142.13365234 308.30570313 -142.58886719 307.72265625 C-168.31963784 274.41769215 -181.46521635 233.57114088 -181.5 191.6875 C-181.50067474 190.95584625 -181.50134949 190.2241925 -181.50204468 189.47036743 C-181.48419786 177.24562905 -180.75916927 165.43500105 -178.25 153.4375 C-178.07839355 152.61040527 -177.90678711 151.78331055 -177.72998047 150.93115234 C-170.43106945 116.94131738 -154.90481497 86.26456255 -131.3359375 60.7109375 C-129.3977745 58.5985576 -127.53976729 56.43751928 -125.6875 54.25 C-113.91473538 40.77764612 -97.85987719 29.97682905 -82.25 21.4375 C-81.62834961 21.09380371 -81.00669922 20.75010742 -80.36621094 20.39599609 C-64.41435909 11.68420822 -47.11131758 5.77000659 -29.25 2.4375 C-27.85225342 2.1736853 -27.85225342 2.1736853 -26.42626953 1.90454102 C-17.60900275 0.3855658 -8.92049621 -0.00389437 0 0 Z M-65.25 107.4375 C-65.25 108.0975 -65.25 108.7575 -65.25 109.4375 C-65.91 109.4375 -66.57 109.4375 -67.25 109.4375 C-67.3325 110.05625 -67.415 110.675 -67.5 111.3125 C-67.7475 112.01375 -67.995 112.715 -68.25 113.4375 C-68.83652344 113.68242188 -69.42304687 113.92734375 -70.02734375 114.1796875 C-73.19365979 115.97152189 -74.6985987 118.66701777 -76.5625 121.6875 C-76.95276367 122.31084229 -77.34302734 122.93418457 -77.74511719 123.57641602 C-95.28713662 152.06966758 -101.58998384 185.73795348 -94.3984375 218.5703125 C-86.8533764 248.44384711 -70.65937455 273.95524479 -44.25 290.4375 C-22.04433835 303.60728712 5.5461219 308.94771283 30.9375 302.875 C57.86599929 295.71068736 79.40035079 278.11361739 93.52709961 254.30859375 C104.38918208 235.31354772 108.94551982 214.38873171 108.88037109 192.69921875 C108.87496055 190.54680507 108.88036802 188.39459525 108.88671875 186.2421875 C108.88605882 184.87239537 108.88477943 183.50260337 108.8828125 182.1328125 C108.88112061 180.2768042 108.88112061 180.2768042 108.87939453 178.38330078 C108.9534246 175.50473849 108.9534246 175.50473849 107.75 173.4375 C107.61776481 171.87712479 107.51931471 170.31382969 107.4375 168.75 C105.53122429 146.89895905 94.8062625 125.91819537 80.75 109.4375 C80.14671875 108.68855469 79.5434375 107.93960938 78.921875 107.16796875 C63.35987279 88.50010475 39.86660502 78.32070493 16.06640625 75.71484375 C-14.0093692 73.19967289 -44.52073802 85.60895897 -65.25 107.4375 Z " fill="#4185F4" transform="translate(1955.25,829.5625)"/>
<path d="M0 0 C0.82732635 0.00054382 1.65465271 0.00108765 2.50704956 0.00164795 C55.71084997 0.16148248 103.65813397 20.8930689 141.08862305 58.40527344 C170.93034132 89.16929491 187.52062248 130.4119379 191.328125 172.7578125 C191.6001196 176.18746705 191.6001196 176.18746705 192.20141602 178.76049805 C197.09634065 205.08884959 188.85701086 244.44503747 176.6875 268.375 C176.0275 268.705 175.3675 269.035 174.6875 269.375 C174.584375 270.2 174.48125 271.025 174.375 271.875 C173.42628971 276.70479783 171.22730806 280.19247204 168.6875 284.375 C168.34009766 284.95604492 167.99269531 285.53708984 167.63476562 286.13574219 C161.88637509 295.72452606 155.65365865 304.63215134 148.6875 313.375 C148.13964844 314.15359375 147.59179688 314.9321875 147.02734375 315.734375 C146.58519531 316.27578125 146.14304687 316.8171875 145.6875 317.375 C145.0275 317.375 144.3675 317.375 143.6875 317.375 C143.34525391 318.20451172 143.34525391 318.20451172 142.99609375 319.05078125 C125.78317773 349.62297538 78.59201937 366.96786917 47.03125 376.4765625 C38.22847792 378.72263063 29.16252126 379.38972288 20.1328125 380.15209961 C18.50568158 380.30041935 16.88038119 380.47045607 15.2578125 380.66235352 C8.8043077 381.41581816 2.54691731 381.37840483 -3.9375 381.0625 C-4.99437012 381.01254883 -6.05124023 380.96259766 -7.14013672 380.91113281 C-28.36466619 379.81771855 -48.62497936 375.71176719 -68.66015625 368.609375 C-71.57029862 367.62584025 -74.29041217 366.86984479 -77.3125 366.375 C-77.3125 365.715 -77.3125 365.055 -77.3125 364.375 C-77.87259766 364.26019287 -78.43269531 364.14538574 -79.00976562 364.02709961 C-81.61625493 363.28898119 -83.76412325 362.21262829 -86.15625 360.94140625 C-87.07277344 360.45736328 -87.98929688 359.97332031 -88.93359375 359.47460938 C-89.88363281 358.96736328 -90.83367187 358.46011719 -91.8125 357.9375 C-93.69779608 356.93857446 -95.58320835 355.93986818 -97.46875 354.94140625 C-98.30212891 354.49740479 -99.13550781 354.05340332 -99.99414062 353.59594727 C-102.0871513 352.49367827 -104.1922995 351.4238161 -106.3125 350.375 C-106.3125 349.715 -106.3125 349.055 -106.3125 348.375 C-107.055 348.08625 -107.7975 347.7975 -108.5625 347.5 C-109.47 347.12875 -110.3775 346.7575 -111.3125 346.375 C-111.9725 346.106875 -112.6325 345.83875 -113.3125 345.5625 C-115.3125 344.375 -115.3125 344.375 -117.49609375 342.17578125 C-120.06519143 339.62093654 -122.70777355 337.30047753 -125.47705078 334.97290039 C-136.30019315 325.86080021 -147.7979821 315.38488943 -155 303.0625 C-156.61534 300.15717167 -156.61534 300.15717167 -159.3125 298.375 C-160.22460938 296.80639648 -160.22460938 296.80639648 -161.15625 294.80859375 C-163.52458293 289.88662776 -166.21908519 285.18654843 -168.95703125 280.46289062 C-173.56518887 272.39465589 -176.92041247 264.06799947 -179.8125 255.25 C-180.11365723 254.33710205 -180.41481445 253.4242041 -180.72509766 252.48364258 C-186.93670097 233.42949095 -186.93670097 233.42949095 -188.03564453 223.68188477 C-188.35756038 220.99953661 -188.76794269 218.33527683 -189.171875 215.6640625 C-195.98615616 166.78206302 -183.10900388 115.06556264 -153.68334961 75.39550781 C-148.32512293 68.31840653 -142.42801885 61.79947522 -136.3125 55.375 C-135.62027344 54.61832031 -134.92804688 53.86164062 -134.21484375 53.08203125 C-123.69132608 41.95021776 -110.59080253 32.90248841 -97.3125 25.375 C-96.71630859 25.02518066 -96.12011719 24.67536133 -95.50585938 24.31494141 C-66.59142376 7.4233723 -33.27027076 -0.08285868 0 0 Z M-60.3125 95.375 C-61.3025 96.035 -62.2925 96.695 -63.3125 97.375 C-63.3125 98.035 -63.3125 98.695 -63.3125 99.375 C-63.89902344 99.64828125 -64.48554687 99.9215625 -65.08984375 100.203125 C-82.65900593 109.46630365 -94.42638358 133.36464225 -100.3125 151.375 C-107.22060137 174.63928519 -108.49609837 201.96678182 -101.3125 225.375 C-100.75175781 227.23705078 -100.75175781 227.23705078 -100.1796875 229.13671875 C-90.59614757 257.98253925 -71.55764301 280.63762378 -44.5625 294.625 C-22.8243546 305.44377743 4.5452065 308.61044211 27.94921875 301.62890625 C29.18285156 301.21511719 30.41648437 300.80132813 31.6875 300.375 C32.31865723 300.16601074 32.94981445 299.95702148 33.60009766 299.74169922 C48.69579752 294.61507512 61.42013755 286.60517644 72.6875 275.375 C73.53570313 274.53195312 74.38390625 273.68890625 75.2578125 272.8203125 C76.05960938 272.01335937 76.86140625 271.20640625 77.6875 270.375 C78.32171875 269.73820312 78.9559375 269.10140625 79.609375 268.4453125 C99.3847276 247.40230909 108.49934846 216.07183607 107.875 187.5859375 C105.97541475 155.05554013 94.75949748 125.25428639 71.0234375 102.41796875 C63.71551448 95.41476665 63.71551448 95.41476665 54.6875 92.375 C54.6875 91.715 54.6875 91.055 54.6875 90.375 C39.97778624 82.66233927 24.62938259 75.73568368 7.6875 76.375 C6.6975 76.045 5.7075 75.715 4.6875 75.375 C-19.10404155 74.67451297 -40.81021026 82.081173 -60.3125 95.375 Z " fill="#FBBB05" transform="translate(1553.3125,829.625)"/>
<path d="M0 0 C0.76181076 -0.00979385 1.52362152 -0.01958771 2.30851746 -0.02967834 C54.32016444 -0.5596321 99.79692671 13.4828319 139.8203125 47.23828125 C140.80451172 48.03685547 140.80451172 48.03685547 141.80859375 48.8515625 C145.58374505 51.9570639 148.78733837 55.32574037 151.9453125 59.0546875 C153.96609346 61.40805533 156.07865406 63.65845789 158.1953125 65.92578125 C163.32952602 71.64204605 167.6805404 77.7846507 171.8203125 84.23828125 C172.2239502 84.86589355 172.62758789 85.49350586 173.04345703 86.14013672 C188.24091934 110.09143234 196.66627893 136.30705551 200.8203125 164.23828125 C200.9248877 164.92269287 201.02946289 165.60710449 201.13720703 166.31225586 C204.96056711 195.15160784 201.00004943 224.5689371 192.8203125 252.23828125 C192.60036621 252.99947266 192.38041992 253.76066406 192.15380859 254.54492188 C188.26200937 267.71532171 181.68279574 279.40359285 174.8203125 291.23828125 C174.27890625 292.18977051 173.7375 293.14125977 173.1796875 294.12158203 C172.64859375 295.03794434 172.1175 295.95430664 171.5703125 296.8984375 C171.09078125 297.73125244 170.61125 298.56406738 170.1171875 299.42211914 C169.68921875 300.02145264 169.26125 300.62078613 168.8203125 301.23828125 C168.1603125 301.23828125 167.5003125 301.23828125 166.8203125 301.23828125 C166.62050781 301.90988281 166.42070313 302.58148437 166.21484375 303.2734375 C164.29472656 307.35570346 161.50620706 310.3379458 158.5078125 313.67578125 C157.36538471 314.96570255 156.223451 316.25606162 155.08203125 317.546875 C154.52676758 318.16973389 153.97150391 318.79259277 153.39941406 319.43432617 C151.96453273 321.07352502 150.58906062 322.74518937 149.22265625 324.44140625 C146.87823894 327.17084169 144.51042245 329.31970157 141.6953125 331.55078125 C137.49228295 334.8894717 137.49228295 334.8894717 133.3984375 338.359375 C94.10793067 372.45702822 41.10606481 383.08740095 -9.53466797 380.03613281 C-49.99964065 376.49068141 -87.88553126 358.86169711 -118.1796875 332.23828125 C-119.46999676 331.17413321 -120.76138492 330.11128937 -122.0546875 329.05078125 C-125.23000601 326.33245647 -127.90315934 323.25100818 -130.6015625 320.06640625 C-132.26203963 318.08982154 -132.26203963 318.08982154 -134.6171875 315.86328125 C-136.1796875 314.23828125 -136.1796875 314.23828125 -136.1796875 312.23828125 C-136.8396875 312.23828125 -137.4996875 312.23828125 -138.1796875 312.23828125 C-139.45727539 310.74804688 -139.45727539 310.74804688 -140.90234375 308.64453125 C-141.43641846 307.86972412 -141.97049316 307.09491699 -142.52075195 306.29663086 C-143.08882568 305.45237549 -143.65689941 304.60812012 -144.2421875 303.73828125 C-144.82637451 302.87404541 -145.41056152 302.00980957 -146.01245117 301.11938477 C-175.77603432 256.58239743 -186.66410592 203.73990598 -176.55639648 150.90625 C-166.72739882 103.18181413 -139.93248326 60.25076749 -99.36962891 32.67382812 C-70.22205786 13.56705914 -35.19226698 0.37701616 0 0 Z M-66.5078125 109.890625 C-70.49474622 114.08080354 -70.49474622 114.08080354 -72.1796875 119.23828125 C-73.1696875 119.73328125 -73.1696875 119.73328125 -74.1796875 120.23828125 C-81.95899361 129.94435048 -86.90234965 141.50767276 -90.4921875 153.30078125 C-90.73453125 154.09073486 -90.976875 154.88068848 -91.2265625 155.69458008 C-100.38695578 187.37750812 -96.01790465 221.98449657 -80.41625977 250.79736328 C-71.84006073 265.92240479 -59.69996125 278.70681663 -45.1796875 288.23828125 C-44.25671875 288.84414062 -43.33375 289.45 -42.3828125 290.07421875 C-19.75486366 304.07908438 8.50334142 308.38161104 34.5078125 302.67578125 C61.81187619 295.93353916 86.06052216 278.03883336 100.62109375 254.05859375 C117.72021274 224.85169524 122.41411798 190.2593055 113.94042969 157.45214844 C107.61655145 134.41930752 94.99580437 112.92589204 75.8203125 98.23828125 C75.1603125 98.23828125 74.5003125 98.23828125 73.8203125 98.23828125 C73.8203125 97.57828125 73.8203125 96.91828125 73.8203125 96.23828125 C71.80899566 94.70992499 69.82370882 93.33725302 67.6953125 91.98828125 C67.06367187 91.58714111 66.43203125 91.18600098 65.78125 90.77270508 C23.82287659 64.81408344 -33.68511599 72.49698249 -66.5078125 109.890625 Z " fill="#EA4334" transform="translate(1132.1796875,829.76171875)"/>
<path d="M0 0 C1.25756104 0.30599121 1.25756104 0.30599121 2.54052734 0.61816406 C33.06978175 8.23246712 57.35562164 23.47764039 80 45 C80.94746094 45.86818359 80.94746094 45.86818359 81.9140625 46.75390625 C104.44313034 68.0550865 118.78011392 98.11758323 130.125 126.4375 C130.52783203 127.42693604 130.93066406 128.41637207 131.34570312 129.43579102 C131.70857422 130.36319092 132.07144531 131.29059082 132.4453125 132.24609375 C132.77031738 133.06779053 133.09532227 133.8894873 133.43017578 134.73608398 C134.07440766 137.29562222 134.05002653 138.58523403 133 141 C130.70205126 142.18691936 128.60738161 143.08468881 126.1875 143.9375 C124.930425 144.40342748 123.673934 144.87093302 122.41796875 145.33984375 C121.72469482 145.59588379 121.0314209 145.85192383 120.31713867 146.11572266 C115.49587249 147.9556369 110.75660201 150.00031091 106 152 C103.46515732 153.05805206 100.93002467 154.11538551 98.39453125 155.171875 C97.00731589 155.75030554 95.62010909 156.32875663 94.23291016 156.90722656 C63.75983332 169.61182779 33.25786641 182.24613742 2.73956299 194.8416748 C-10.56167798 200.33204133 -23.8527196 205.84604395 -37.13171387 211.38998413 C-52.338878 217.73803041 -67.57064874 224.02618426 -82.80664062 230.3046875 C-94.56017515 235.15062871 -106.2905377 240.04849784 -118 245 C-105.71913695 268.74806005 -88.14308066 287.05125805 -62.44921875 295.5703125 C-41.38050187 302.11656731 -16.13434672 303.00215118 5 296 C5.98178223 295.67854004 5.98178223 295.67854004 6.98339844 295.35058594 C31.51799007 287.02699855 50.03425796 269.52823023 65 249 C68.37339922 250.25439052 71.2545427 251.67776562 74.22924805 253.69873047 C75.03166428 254.24044891 75.83408051 254.78216736 76.66081238 255.34030151 C77.51911148 255.92667389 78.37741058 256.51304626 79.26171875 257.1171875 C80.16638382 257.72958282 81.07104889 258.34197815 82.00312805 258.97293091 C84.9009498 260.93586055 87.7943391 262.90520885 90.6875 264.875 C93.52534134 266.80099843 96.36408974 268.72565438 99.20291138 270.65020752 C101.06908364 271.91554446 102.93487017 273.18145049 104.80026245 274.44793701 C113.49907895 280.35050295 122.24198836 286.18573815 131 292 C126.68044467 299.65048976 126.68044467 299.65048976 124.3125 302.25 C121.8501645 304.8352669 121.8501645 304.8352669 121 308 C119.38161281 309.71358643 117.70328319 311.3707726 116 313 C114.83066668 314.1639939 113.66412215 315.33079435 112.5 316.5 C111.33333333 317.66666667 110.16666667 318.83333333 109 320 C108.20980469 320.7940625 107.41960938 321.588125 106.60546875 322.40625 C70.42500523 358.4239828 23.54975449 377.23650256 -27.4375 377.375 C-60.98477112 377.28389567 -94.80108824 370.17583045 -124 353 C-124.33 352.34 -124.66 351.68 -125 351 C-125.71800781 350.71382812 -126.43601562 350.42765625 -127.17578125 350.1328125 C-143.81679254 343.45799469 -160.86576247 326.78750264 -172 313 C-172.40573242 312.50661133 -172.81146484 312.01322266 -173.22949219 311.50488281 C-179.89683227 303.37831207 -185.70343312 295.0816135 -191 286 C-191.5671875 285.09378906 -192.134375 284.18757813 -192.71875 283.25390625 C-194 281 -194 281 -194 279 C-194.66 278.67 -195.32 278.34 -196 278 C-197.15767548 275.7640674 -198.1945693 273.55901921 -199.1875 271.25 C-199.64552002 270.18567749 -199.64552002 270.18567749 -200.11279297 269.09985352 C-221.46723954 218.31607108 -223.96191652 160.46349625 -203 109 C-196.94490588 94.86104312 -190.19738826 81.35171407 -181 69 C-180.59523438 68.43877441 -180.19046875 67.87754883 -179.7734375 67.29931641 C-155.6882907 34.00235834 -119.85213066 10.65232745 -80 1 C-79.13584473 0.78972168 -78.27168945 0.57944336 -77.38134766 0.36279297 C-53.23345455 -5.20572794 -24.17782808 -6.04041931 0 0 Z M-104.92578125 102.625 C-106.20521468 103.97186314 -106.20521468 103.97186314 -106 106 C-106.66 106 -107.32 106 -108 106 C-125.78269342 127.15413344 -133.681953 152.60822121 -133 180 C-125.22574043 177.58789714 -117.77699086 174.49231703 -110.28384399 171.33673096 C-107.1134618 170.00167711 -103.94000813 168.67399232 -100.76679993 167.34567261 C-99.08344675 166.64090631 -97.4002521 165.93576127 -95.71720886 165.23025513 C-87.27581285 161.69246576 -78.82187994 158.18516931 -70.36581421 154.68261719 C-67.79295809 153.61690548 -65.22030323 152.55070928 -62.64770508 151.484375 C-56.56054591 148.96134397 -50.47308157 146.43904963 -44.38562012 143.91674805 C-38.31942101 141.40321574 -32.2533733 138.88931847 -26.1875 136.375 C-25.34623566 136.02631866 -24.50497131 135.67763733 -23.63821411 135.31838989 C-9.46895379 129.44502855 4.69195714 123.55176777 18.84692383 117.64404297 C19.56356705 117.34508621 20.28021027 117.04612946 21.01856995 116.7381134 C22.34295227 116.18560631 23.66721177 115.63280467 24.99131775 115.07963562 C28.31699159 113.69240711 31.65048354 112.32865208 35 111 C30.97575782 97.20837606 19.70488173 87.63078622 7.58007812 80.80151367 C-30.61397746 60.40519503 -75.55021477 73.03605168 -104.92578125 102.625 Z " fill="#EA4334" transform="translate(2520,833)"/>
<path d="M0 0 C27.06 0 54.12 0 82 0 C82 184.14 82 368.28 82 558 C54.94 558 27.88 558 0 558 C0 373.86 0 189.72 0 0 Z " fill="#34A753" transform="translate(2187,641)"/>
</svg>
