<?xml version="1.0" encoding="UTF-8"?>
<svg version="1.1" xmlns="http://www.w3.org/2000/svg" width="1173" height="410">
<path d="M0 0 C15.84 0 31.68 0 48 0 C48.01458252 4.39546143 48.02916504 8.79092285 48.04418945 13.31958008 C48.09456835 27.85623264 48.16102043 42.39277907 48.23571491 56.92932606 C48.28060271 65.74120192 48.32003342 74.553038 48.34643555 83.36499023 C48.3694726 91.04912994 48.40293398 98.733143 48.44870156 106.41718215 C48.47255711 110.48252985 48.49133595 114.54775272 48.49761391 118.61316872 C48.5036997 122.44719279 48.52382408 126.2808978 48.55427551 130.11480331 C48.56300016 131.51469766 48.56679001 132.91463381 48.56500816 134.31455421 C48.55206435 149.18910408 51.76644068 164.26794475 62.32421875 175.48046875 C72.25464513 184.48498125 83.83103797 187.97495927 97.1015625 187.37890625 C108.58381867 186.26289538 118.34009964 181.21420763 126.25 172.8125 C133.74725975 163.31313112 138.33207862 151.17900456 137 139 C135.05397305 126.44076722 130.45274509 114.80668855 120 107 C108.00261006 99.77125536 95.57742467 96.48334537 81.68359375 99.7890625 C79.04831896 100.74934344 76.53890432 101.81013732 74 103 C71.69 103.99 69.38 104.98 67 106 C67 88.18 67 70.36 67 52 C81.37288136 48.40677966 81.37288136 48.40677966 89 48 C89.6909375 47.95875 90.381875 47.9175 91.09375 47.875 C113.67932075 47.20080386 136.01287457 55.17995641 153 70 C153.64710938 70.5053125 154.29421875 71.010625 154.9609375 71.53125 C172.16292268 85.4016254 182.7117358 108.06489798 185.71484375 129.640625 C188.24605901 159.46042126 180.8379753 185.29320566 161.4453125 208.3671875 C145.80127569 225.21076706 123.42022502 236.40424901 100.4609375 237.3125 C87.44498217 237.62893327 75.30889379 237.51862441 63 233 C62.02015137 232.64591064 62.02015137 232.64591064 61.02050781 232.28466797 C36.73062169 223.28476033 19.02863896 205.34496277 7.90478516 182.09423828 C0.59278001 165.16968887 -0.16395135 147.37151163 -0.11352539 129.19189453 C-0.11324241 127.77112836 -0.11340341 126.35036204 -0.1139679 124.92959595 C-0.11425155 121.1206159 -0.10842547 117.31166818 -0.10139394 113.50269556 C-0.09508771 109.50423 -0.09455091 105.50576347 -0.09336853 101.5072937 C-0.09027645 93.95706867 -0.08209204 86.40685834 -0.07201904 78.85663974 C-0.06079151 70.25188591 -0.05533081 61.64713133 -0.05032361 53.04237199 C-0.03990736 35.36157133 -0.02158867 17.68079079 0 0 Z " fill="#8D9AAA" transform="translate(383,41)"/>
<path d="M0 0 C24.11723392 -0.71991743 48.13222143 8.47501787 65.6953125 24.93359375 C84.66550652 43.70049421 94.79555532 67.968834 95.21875 94.625 C95.15250515 121.59174984 84.7911489 145.9213903 65.84375 165.125 C44.63579567 184.87923805 19.50790481 190.02742586 -8.69433594 189.30419922 C-15.60284882 188.94659354 -21.6589788 187.51054313 -28.15625 185.125 C-29.35894531 184.68929687 -30.56164062 184.25359375 -31.80078125 183.8046875 C-55.71576143 174.3216076 -73.87138279 155.47379923 -84.0625 132.02734375 C-91.90044355 111.22880068 -93.91719211 85.29583224 -86.15625 64.125 C-85.79402344 63.09375 -85.43179688 62.0625 -85.05859375 61 C-79.60978192 46.81461869 -71.92002559 35.70087926 -61.15625 25.125 C-60.46660156 24.43664062 -59.77695313 23.74828125 -59.06640625 23.0390625 C-42.84968936 7.88517484 -21.68940004 1.25735652 0 0 Z M-31.48046875 64.73828125 C-35.84894695 70.44717974 -38.9933722 76.26977714 -41.15625 83.125 C-41.34703125 83.72441406 -41.5378125 84.32382813 -41.734375 84.94140625 C-44.21216129 97.76624455 -41.51504507 109.70079999 -35.03125 120.875 C-28.52079388 130.48831181 -19.20983397 136.14533945 -8.3046875 139.734375 C3.92684629 141.95829023 15.90611752 139.94835627 26.53125 133.5 C37.56198313 125.51222773 44.37211819 114.88246244 46.5625 101.4453125 C48.18942401 88.0231894 44.21780915 75.30897718 35.9453125 64.6875 C28.68270291 56.6959296 18.03838627 50.58990764 7.15625 49.88671875 C-8.23724214 49.48567871 -20.84019368 52.77467785 -31.48046875 64.73828125 Z " fill="#8C99A8" transform="translate(282.15625,88.875)"/>
<path d="M0 0 C15.84 0 31.68 0 48 0 C48.0679103 19.672394 48.12309383 39.34469202 48.15543652 59.01717377 C48.17085777 68.15293089 48.19185578 77.28860962 48.22631836 86.42431641 C48.2563668 94.3937255 48.27560939 102.36307777 48.28226548 110.33254194 C48.28615178 114.54621389 48.29518426 118.75972339 48.31719017 122.9733429 C48.33780038 126.95257352 48.3437852 130.93157731 48.33932304 134.91085625 C48.34013743 136.3586749 48.34595526 137.80650245 48.35761642 139.25427437 C48.54825738 164.18010308 41.40308244 186.92507527 25 206 C24.50886719 206.62390625 24.01773438 207.2478125 23.51171875 207.890625 C10.85616565 223.71897873 -10.40914663 233.5960909 -30 237 C-34.78020059 237.41322688 -39.51635723 237.47769916 -44.3125 237.4375 C-45.58488525 237.42992676 -46.85727051 237.42235352 -48.16821289 237.41455078 C-57.72113538 237.24743715 -66.01357292 236.29946354 -75 233 C-76.20269531 232.56429687 -77.40539062 232.12859375 -78.64453125 231.6796875 C-91.71099563 226.4984026 -101.97245074 218.63276386 -112 209 C-111.4234559 205.59986814 -110.39002339 204.07329515 -107.875 201.75 C-105.34923941 199.39883116 -103.05572306 196.93880877 -100.8046875 194.328125 C-96.79437436 189.70798794 -92.55983612 185.33992223 -88.25 181 C-87.49589844 180.22527344 -86.74179688 179.45054687 -85.96484375 178.65234375 C-85.23910156 177.92144531 -84.51335937 177.19054687 -83.765625 176.4375 C-83.11368164 175.77621094 -82.46173828 175.11492187 -81.79003906 174.43359375 C-80 173 -80 173 -77 173 C-75.33333333 174.66666667 -73.66666667 176.33333333 -72 178 C-61.26747374 186.16552112 -49.22360417 188.7546286 -36 187 C-24.36378808 184.11245005 -14.92242628 177.79270059 -8 168 C-1.69664924 156.72734097 -0.6997937 146.07804786 -0.68115234 133.39233398 C-0.67183913 131.93289137 -0.66166841 130.47345402 -0.65071106 129.01402283 C-0.62355392 125.07667592 -0.60830434 121.1393645 -0.59528303 117.20194888 C-0.57958955 113.07795594 -0.55281934 108.9540348 -0.5272522 104.83009338 C-0.48057402 97.03182426 -0.44377706 89.23354146 -0.41057932 81.43520457 C-0.37228022 72.55241175 -0.3228906 63.66969126 -0.27259517 54.78695953 C-0.16943842 36.52468658 -0.0815892 18.26238292 0 0 Z " fill="#8C99A9" transform="translate(137,41)"/>
<path d="M0 0 C10.56 0 21.12 0 32 0 C32.09047975 22.29734235 32.16408619 44.59453484 32.20724869 66.8920145 C32.2278272 77.24635478 32.25585722 87.60057244 32.30175781 97.95483398 C32.34177035 106.98521399 32.36746701 116.01550514 32.37635398 125.04597133 C32.38154442 129.8224777 32.39364442 134.59872999 32.42292023 139.3751545 C32.45031778 143.88217482 32.45839648 148.38883936 32.45243073 152.89593506 C32.45352019 154.53930032 32.46132786 156.18267902 32.4768219 157.8259716 C32.59806056 171.36249698 30.75751065 183.97581276 24.4375 196.1875 C24.10234375 196.84548584 23.7671875 197.50347168 23.421875 198.18139648 C19.67814 205.14937256 14.65720283 210.54394216 9 216 C8.36707031 216.66386719 7.73414063 217.32773437 7.08203125 218.01171875 C-4.81428067 229.69794127 -23.27447983 235.28443287 -39.625 235.4375 C-56.08840438 235.18873463 -71.08268589 230.24262146 -84 220 C-84.83402344 219.34257812 -85.66804687 218.68515625 -86.52734375 218.0078125 C-101.37495188 205.51660443 -109.63232856 188.11894685 -112 169 C-113.46991263 149.38074953 -108.37549924 129.8247342 -95.8984375 114.40234375 C-84.98069869 101.96512582 -73.20613208 93.33955669 -57 89 C-55.02 89 -53.04 89 -51 89 C-51 100.22 -51 111.44 -51 123 C-54.3 124.65 -57.6 126.3 -61 128 C-69.67212062 133.60989568 -75.06415034 142.61886561 -77.66796875 152.546875 C-79.34132564 164.91002944 -77.36485246 175.38590996 -70.4375 185.8125 C-64.32828278 193.71451554 -56.02660146 198.69112326 -46.2109375 200.51953125 C-34.52470679 201.72678649 -24.37921864 199.21235026 -15 192 C-6.85691685 184.78714603 -2.49189904 175.72211605 -1 165 C-0.90266345 162.67291588 -0.85418923 160.34352067 -0.84178162 158.01443481 C-0.83684364 157.33552213 -0.83190566 156.65660944 -0.82681805 155.95712364 C-0.81153167 153.69553917 -0.80310664 151.4339829 -0.79467773 149.17236328 C-0.78509223 147.54588069 -0.77508176 145.91940055 -0.76467896 144.29292297 C-0.73769666 139.88640977 -0.71665104 135.47988592 -0.69667697 131.07333612 C-0.67477614 126.4648766 -0.64740753 121.85644961 -0.62062073 117.24801636 C-0.57074917 108.52528125 -0.52578984 99.80252803 -0.48259836 91.07975757 C-0.43317862 81.14750055 -0.37827808 71.21527619 -0.32291877 61.28305078 C-0.20918373 40.85539618 -0.10304977 20.42771149 0 0 Z " fill="#FE7800" transform="translate(1003,42)"/>
<path d="M0 0 C8.4459375 0.061875 8.4459375 0.061875 17.0625 0.125 C17.0625 12.005 17.0625 23.885 17.0625 36.125 C-0.375 36.4375 -0.375 36.4375 -5.82202148 36.51293945 C-18.30494827 36.75817319 -28.29179923 38.0573612 -37.4375 47.5625 C-49.6119578 62.10720622 -50.02674986 79.90999719 -50.9375 98.125 C-28.4975 98.125 -6.0575 98.125 17.0625 98.125 C17.0625 110.005 17.0625 121.885 17.0625 134.125 C-5.3775 134.125 -27.8175 134.125 -50.9375 134.125 C-50.9375 167.455 -50.9375 200.785 -50.9375 235.125 C-64.1375 235.125 -77.3375 235.125 -90.9375 235.125 C-91.00539558 214.40953569 -91.06058537 193.6941624 -91.09293652 172.97861481 C-91.10836143 163.3585866 -91.1293666 153.73863278 -91.16381836 144.11865234 C-91.19385542 135.72734158 -91.21310675 127.33608473 -91.21976548 118.9447217 C-91.22365367 114.507488 -91.23269859 110.07040845 -91.25469017 105.63322449 C-91.27528222 101.44387822 -91.28128871 97.25474738 -91.27682304 93.0653553 C-91.27763822 91.54013454 -91.28346708 90.01490542 -91.29511642 88.48972893 C-91.48678185 62.06618881 -83.43635936 38.1319764 -64.78125 18.90234375 C-46.34670648 1.56986534 -23.97419075 -0.25045843 0 0 Z " fill="#FE7800" transform="translate(668.9375,41.875)"/>
<path d="M0 0 C13.9920417 11.10310643 22.29530525 26.94208718 24.41470337 44.67376709 C25.21801083 53.51258315 25.25351889 62.3073198 25.22265625 71.171875 C25.22078648 72.76898148 25.21936523 74.36608854 25.21836853 75.9631958 C25.21458729 80.12562704 25.20479562 84.28802225 25.19366455 88.45043945 C25.1815358 93.46669775 25.17702724 98.48296823 25.17121124 103.49923706 C25.16158063 111.0828496 25.14239362 118.66638343 25.125 126.25 C14.235 126.25 3.345 126.25 -7.875 126.25 C-7.90078125 121.04734375 -7.9265625 115.8446875 -7.953125 110.484375 C-7.97832431 107.16661905 -8.0046808 103.84895149 -8.03515625 100.53125 C-8.08330251 95.27799271 -8.12741743 90.02494032 -8.14599609 84.77148438 C-8.16126349 80.53072732 -8.19588453 76.29051039 -8.24330902 72.04999542 C-8.25801978 70.44113133 -8.26603502 68.83219009 -8.26688385 67.22325897 C-8.28227454 52.66361627 -10.51381227 40.21337641 -20.875 29.25 C-29.08358764 23.01547149 -37.55418383 19.98318689 -47.875 20.25 C-60.27952859 22.41609929 -68.17929769 28.24467865 -75.3671875 38.33203125 C-80.39695998 48.06581375 -80.34575711 57.94185041 -80.38671875 68.6328125 C-80.40359211 70.30005187 -80.42174586 71.96727873 -80.44111633 73.63449097 C-80.48833442 77.99088631 -80.51832517 82.34723088 -80.54455566 86.70379639 C-80.57978398 91.94790196 -80.63671538 97.19181272 -80.68994904 102.4357605 C-80.76813188 110.37381451 -80.81898709 118.31161932 -80.875 126.25 C-91.765 126.25 -102.655 126.25 -113.875 126.25 C-113.94320035 116.3564022 -113.99805838 106.46296452 -114.03043652 96.56918335 C-114.04598859 91.97344113 -114.06703173 87.37787023 -114.10131836 82.78222656 C-114.13428997 78.33421177 -114.15193128 73.88636014 -114.15963173 69.43823242 C-114.1651083 67.75444984 -114.17579898 66.07067459 -114.19219017 64.38696289 C-114.39611628 42.53943587 -110.68482976 21.54624024 -95.125 5 C-70.01507816 -18.6129842 -27.45283455 -20.68533597 0 0 Z " fill="#FE7800" transform="translate(856.875,150.75)"/>
<path d="M0 0 C11.22 0 22.44 0 34 0 C34 44.88 34 89.76 34 136 C22.78 136 11.56 136 0 136 C0 91.12 0 46.24 0 0 Z " fill="#FE7800" transform="translate(694,141)"/>
<path d="M0 0 C1.11503906 0.01289062 2.23007813 0.02578125 3.37890625 0.0390625 C6.26381635 0.35592363 7.98852599 0.87807212 10.4375 2.375 C10.7675 1.715 11.0975 1.055 11.4375 0.375 C17.0475 0.375 22.6575 0.375 28.4375 0.375 C26.77634975 13.01094064 24.52762877 25.52866811 22.23388672 38.06298828 C21.78451612 40.53076823 21.34054594 42.99953739 20.90185547 45.46923828 C20.2615948 49.07290946 19.60526724 52.67332738 18.9453125 56.2734375 C18.65758469 57.91740005 18.65758469 57.91740005 18.36404419 59.59457397 C17.08002967 66.46651489 15.65830185 73.24948814 10.45703125 78.296875 C2.35514275 82.62206112 -7.78827164 81.82762225 -16.5625 80.375 C-20.52580792 78.75153232 -22.16783034 77.96700449 -24.5625 74.375 C-24.82905603 70.69119572 -24.64952669 67.07363419 -24.5625 63.375 C-19.9425 63.375 -15.3225 63.375 -10.5625 63.375 C-10.5625 65.025 -10.5625 66.675 -10.5625 68.375 C-5.7727679 68.60928313 -5.7727679 68.60928313 -1.5625 66.375 C-0.76940096 64.55962401 -0.76940096 64.55962401 -0.375 62.5 C-0.13716797 61.48292969 -0.13716797 61.48292969 0.10546875 60.4453125 C0.54306919 58.06620648 0.54306919 58.06620648 0.4375 54.375 C-1.0475 54.87 -1.0475 54.87 -2.5625 55.375 C-4.51725009 55.5197963 -6.4776138 55.59567502 -8.4375 55.625 C-9.98050781 55.66367188 -9.98050781 55.66367188 -11.5546875 55.703125 C-14.97470687 55.33003198 -16.81275853 54.40527507 -19.5625 52.375 C-23.40172337 44.69655326 -19.70374325 32.53977487 -18.3125 24.5625 C-18.10753906 23.27923828 -17.90257812 21.99597656 -17.69140625 20.67382812 C-17.37236328 18.81467773 -17.37236328 18.81467773 -17.046875 16.91796875 C-16.85834961 15.80446045 -16.66982422 14.69095215 -16.47558594 13.54370117 C-14.04686427 5.11525772 -8.88556201 -0.22651491 0 0 Z M3.3269043 13.04223633 C0.88653595 14.76364359 0.72744131 15.79466705 0.20703125 18.69921875 C0.04396484 19.56353516 -0.11910156 20.42785156 -0.28710938 21.31835938 C-0.51624023 22.67670898 -0.51624023 22.67670898 -0.75 24.0625 C-0.9965332 25.3918457 -0.9965332 25.3918457 -1.24804688 26.74804688 C-2.13667457 31.60851659 -2.89943218 36.47901436 -3.5625 41.375 C-1.20882287 42.0628236 -1.20882287 42.0628236 1.4375 42.375 C4.54420891 40.7419685 4.54420891 40.7419685 5.14526367 38.31542969 C5.29713135 37.48430664 5.44899902 36.65318359 5.60546875 35.796875 C5.77626953 34.88292969 5.94707031 33.96898438 6.12304688 33.02734375 C6.28869141 32.06957031 6.45433594 31.11179687 6.625 30.125 C6.89086914 28.71154297 6.89086914 28.71154297 7.16210938 27.26953125 C8.01266617 22.58654286 8.67011328 18.15560392 8.4375 13.375 C5.59003857 12.09946676 5.59003857 12.09946676 3.3269043 13.04223633 Z " fill="#8C98A8" transform="translate(1073.5625,40.625)"/>
<path d="M0 0 C0.33 0.66 0.66 1.32 1 2 C1.66 2.33 2.32 2.66 3 3 C2.52949219 4.00417969 2.05898438 5.00835937 1.57421875 6.04296875 C0.9446817 7.42419183 0.31581203 8.80571923 -0.3125 10.1875 C-0.62123047 10.84169922 -0.92996094 11.49589844 -1.24804688 12.16992188 C-6.77324356 24.44167451 -7.46129813 36.68436013 -7.51171875 49.89453125 C-7.52860472 51.57990288 -7.54676008 53.26526223 -7.56611633 54.9506073 C-7.61319784 59.3414831 -7.64327581 63.73230907 -7.66955566 68.12335205 C-7.69957488 72.62204835 -7.74603058 77.12057349 -7.79101562 81.61914062 C-7.8765714 90.41268952 -7.94260309 99.20622219 -8 108 C0.25 108 8.5 108 17 108 C16.98428955 105.94233398 16.9685791 103.88466797 16.95239258 101.76464844 C16.90241496 94.92352884 16.86943936 88.08240063 16.84456348 81.24114609 C16.82898747 77.09816484 16.80789903 72.95537255 16.77368164 68.8125 C16.74079733 64.8054039 16.72308655 60.79848815 16.71536827 56.7912674 C16.7098764 55.27164119 16.69915408 53.75202351 16.68280983 52.23247528 C16.5395508 38.34599151 17.91023174 26.10213722 27 15 C35.37063278 6.76772479 44.73956146 1.939131 56.5 1.6875 C68.81719914 1.80273367 77.70325505 5.84777051 86.3828125 14.328125 C91.83372007 20.04193808 95.67983575 24.87737204 96.1875 33 C96.125625 33.66 96.06375 34.32 96 35 C96.66 35 97.32 35 98 35 C98 59.09 98 83.18 98 108 C105.92 108 113.84 108 122 108 C121.95948088 97.81083808 121.90211366 87.62213758 121.81609726 77.43325615 C121.77679697 72.70077113 121.74452375 67.96846733 121.72900391 63.23583984 C121.71372131 58.65793302 121.67907393 54.08052501 121.63169098 49.50284195 C121.61699568 47.76723726 121.6089659 46.03156131 121.60811615 44.29589462 C121.59440758 30.31928722 119.95740538 18.38022346 112.85546875 5.98828125 C112 4 112 4 113 1 C116.885255 2.295085 117.12703613 3.52328142 118.9375 7.125 C126.77762136 23.54634873 127.15970499 40.09985743 127.09765625 57.921875 C127.09578648 59.51898148 127.09436523 61.11608854 127.09336853 62.7131958 C127.08958729 66.87562704 127.07979562 71.03802225 127.06866455 75.20043945 C127.0565358 80.21669775 127.05202724 85.23296823 127.04621124 90.24923706 C127.03658063 97.8328496 127.01739362 105.41638343 127 113 C116.11 113 105.22 113 94 113 C93.97421875 107.79734375 93.9484375 102.5946875 93.921875 97.234375 C93.89667569 93.91661905 93.8703192 90.59895149 93.83984375 87.28125 C93.79169749 82.02799271 93.74758257 76.77494032 93.72900391 71.52148438 C93.71373651 67.28072732 93.67911547 63.04051039 93.63169098 58.79999542 C93.61698022 57.19113133 93.60896498 55.58219009 93.60811615 53.97325897 C93.59272546 39.41361627 91.36118773 26.96337641 81 16 C72.79141236 9.76547149 64.32081617 6.73318689 54 7 C41.59547141 9.16609929 33.69570231 14.99467865 26.5078125 25.08203125 C21.47804002 34.81581375 21.52924289 44.69185041 21.48828125 55.3828125 C21.47140789 57.05005187 21.45325414 58.71727873 21.43388367 60.38449097 C21.38666558 64.74088631 21.35667483 69.09723088 21.33044434 73.45379639 C21.29521602 78.69790196 21.23828462 83.94181272 21.18505096 89.1857605 C21.10686812 97.12381451 21.05601291 105.06161932 21 113 C10.11 113 -0.78 113 -12 113 C-12.06820035 103.1064022 -12.12305838 93.21296452 -12.15543652 83.31918335 C-12.17098859 78.72344113 -12.19203173 74.12787023 -12.22631836 69.53222656 C-12.25928997 65.08421177 -12.27693128 60.63636014 -12.28463173 56.18823242 C-12.2901083 54.50444984 -12.30079898 52.82067459 -12.31719017 51.13696289 C-12.48999549 32.62354722 -9.86589775 16.0777593 0 0 Z " fill="#E46C00" transform="translate(755,164)"/>
<path d="M0 0 C1.96882534 1.13580894 1.96882534 1.13580894 4 3 C4.49942875 5.61741066 4.49942875 5.61741066 4.49879456 8.82705688 C4.50837189 10.0434938 4.51794922 11.25993073 4.52781677 12.51322937 C4.51831814 13.86380251 4.50846421 15.21437318 4.49829102 16.56494141 C4.50211394 17.98606434 4.50773276 19.40718342 4.51501465 20.82829285 C4.52698326 23.8927678 4.52646132 26.95690023 4.51642036 30.02138138 C4.50084657 34.88232958 4.51455184 39.74292731 4.53245544 44.60385132 C4.56331552 54.06700028 4.56477831 63.53004276 4.56280518 72.99323273 C4.56141439 84.98709081 4.57205645 96.98086437 4.6113829 108.97466218 C4.6237774 113.00666967 4.62960416 117.03846475 4.61987495 121.07048416 C4.54558782 152.3771122 7.09362836 181.9985709 30.32421875 205.390625 C31.20722656 206.25171875 32.09023438 207.1128125 33 208 C33.72832031 208.73734375 34.45664062 209.4746875 35.20703125 210.234375 C51.62656173 225.95325761 74.32483421 232.38764864 96.57421875 232.15234375 C120.885512 231.07122581 142.15341383 220.62613531 158.875 203.1875 C163.88682768 197.34503421 167.37074958 190.75335891 171 184 C171.70776702 182.76250421 172.41869685 181.52681186 173.1328125 180.29296875 C182.5194145 163.73877317 183.98062401 140.66356712 179.3125 122.375 C176.28819065 112.04990178 172.6492345 102.48612276 166.94140625 93.33984375 C166 91 166 91 166.83984375 88.69140625 C167.22269531 88.13324219 167.60554687 87.57507813 168 87 C171.36841638 90.90976902 173.72660052 94.90907877 176 99.5 C176.34885254 100.20415039 176.69770508 100.90830078 177.05712891 101.63378906 C180.08722994 107.90931388 182.35063353 114.22023574 184 121 C184.22429687 121.91394531 184.44859375 122.82789063 184.6796875 123.76953125 C189.68859441 148.29945206 184.53451189 173.60615564 171.625 194.8125 C157.97492931 215.04493812 138.43776154 229.57496128 114.75 235.9375 C98.04510195 239.00966516 79.03430268 238.88623094 63 233 C62.02015137 232.64591064 62.02015137 232.64591064 61.02050781 232.28466797 C36.73062169 223.28476033 19.02863896 205.34496277 7.90478516 182.09423828 C0.59278001 165.16968887 -0.16395135 147.37151163 -0.11352539 129.19189453 C-0.11324241 127.77112836 -0.11340341 126.35036204 -0.1139679 124.92959595 C-0.11425155 121.1206159 -0.10842547 117.31166818 -0.10139394 113.50269556 C-0.09508771 109.50423 -0.09455091 105.50576347 -0.09336853 101.5072937 C-0.09027645 93.95706867 -0.08209204 86.40685834 -0.07201904 78.85663974 C-0.06079151 70.25188591 -0.05533081 61.64713133 -0.05032361 53.04237199 C-0.03990736 35.36157303 -0.02234957 17.6807877 0 0 Z " fill="#7D8997" transform="translate(383,41)"/>
<path d="M0 0 C0.99 0 1.98 0 3 0 C2.6787687 4.06892984 1.54424214 7.11640391 -0.3125 10.6875 C-7.69236692 24.91554314 -10.45110172 39.04663912 -10.43237305 54.95800781 C-10.44140952 56.52626813 -10.4517413 58.09452143 -10.46325684 59.6627655 C-10.49063189 63.88301382 -10.50008458 68.10312742 -10.50611091 72.32345295 C-10.5155458 76.74773216 -10.54175299 81.17191273 -10.56611633 85.59613037 C-10.60964514 93.95742087 -10.63827549 102.31869208 -10.66143972 110.6800611 C-10.68856475 120.20621294 -10.73247151 129.73226487 -10.77772844 139.25834513 C-10.87037953 158.83885692 -10.93993465 178.41935926 -11 198 C-0.44 198 10.12 198 21 198 C21 165.33 21 132.66 21 99 C23.81215512 97.59392244 26.1404422 97.88049514 29.28564453 97.88647461 C29.92967224 97.88632858 30.57369995 97.88618256 31.23724365 97.8860321 C33.36913402 97.8867296 35.50093737 97.89451434 37.6328125 97.90234375 C39.10968986 97.90420851 40.58656784 97.90563214 42.06344604 97.90663147 C45.95312199 97.91045208 49.84276067 97.92027848 53.73242188 97.93133545 C57.70051571 97.94155936 61.66861555 97.94613119 65.63671875 97.95117188 C73.42449616 97.96190115 81.21224286 97.97897211 89 98 C88.9685791 96.70582153 88.9685791 96.70582153 88.93652344 95.38549805 C88.86832098 92.1819249 88.81818686 88.97872184 88.78027344 85.7746582 C88.76016725 84.38846662 88.73287755 83.00235975 88.69824219 81.61645508 C88.64968775 79.62358094 88.62916028 77.63008611 88.609375 75.63671875 C88.5779541 73.83787231 88.5779541 73.83787231 88.54589844 72.00268555 C89 69 89 69 93 66 C93 77.88 93 89.76 93 102 C70.56 102 48.12 102 25 102 C25 135.33 25 168.66 25 203 C11.8 203 -1.4 203 -15 203 C-15.06789558 182.28453569 -15.12308537 161.5691624 -15.15543652 140.85361481 C-15.17086143 131.2335866 -15.1918666 121.61363278 -15.22631836 111.99365234 C-15.25635542 103.60234158 -15.27560675 95.21108473 -15.28226548 86.8197217 C-15.28615367 82.382488 -15.29519859 77.94540845 -15.31719017 73.50822449 C-15.33778222 69.31887822 -15.34378871 65.12974738 -15.33932304 60.9403553 C-15.34013822 59.41513454 -15.34596708 57.88990542 -15.35761642 56.36472893 C-15.5079644 35.63733053 -10.5471593 17.99001285 0 0 Z " fill="#E86E00" transform="translate(593,74)"/>
<path d="M0 0 C0.33 0 0.66 0 1 0 C1.09366469 22.16691261 1.16408734 44.33379234 1.20724869 66.50086308 C1.22782673 76.79466959 1.25585583 87.08835276 1.30175781 97.38208008 C1.34177182 106.35972237 1.36746735 115.33727529 1.37635398 124.31500429 C1.38154418 129.06356565 1.39364258 133.81187141 1.42292023 138.56035042 C1.45032011 143.04110646 1.45839603 147.52150463 1.45243073 152.0023365 C1.45352008 153.63602654 1.46132636 155.2697301 1.4768219 156.90334702 C1.59851524 170.40946074 -0.25748788 183.0047933 -6.5625 195.1875 C-6.89765625 195.84548584 -7.2328125 196.50347168 -7.578125 197.18139648 C-11.32186 204.14937256 -16.34279717 209.54394216 -22 215 C-22.63292969 215.66386719 -23.26585937 216.32773437 -23.91796875 217.01171875 C-35.81428067 228.69794127 -54.27447983 234.28443287 -70.625 234.4375 C-87.08840438 234.18873463 -102.08268589 229.24262146 -115 219 C-115.83402344 218.34257812 -116.66804687 217.68515625 -117.52734375 217.0078125 C-132.37495188 204.51660443 -140.63232856 187.11894685 -143 168 C-144.35943774 149.85528233 -140.14797539 133.07699201 -130 118 C-129.01 118.33 -128.02 118.66 -127 119 C-127 119.66 -127 120.32 -127 121 C-127.66 121 -128.32 121 -129 121 C-129.10441406 121.66257812 -129.20882812 122.32515625 -129.31640625 123.0078125 C-130.17614674 126.77101946 -131.53934784 130.28741532 -132.9375 133.875 C-139.5010333 150.77090811 -140.68889238 168.45501815 -133.5234375 185.515625 C-124.64591721 204.24354451 -111.79094659 217.30252564 -92.73046875 225.38671875 C-76.76116809 230.78559264 -57.34118469 229.77355332 -42.27319336 222.33447266 C-28.23224174 215.01590418 -18.10338051 205.45550212 -10.75 191.375 C-10.43272949 190.78525391 -10.11545898 190.19550781 -9.78857422 189.58789062 C-3.59736494 177.08184308 -2.40712378 163.77051217 -2.48583984 150.06884766 C-2.48036235 148.44413087 -2.47311131 146.81941926 -2.46424866 145.19471741 C-2.44906124 141.73376236 -2.44604595 138.27310302 -2.45301437 134.81212234 C-2.46389597 129.34097154 -2.44631311 123.87012486 -2.42520142 118.39901733 C-2.39510048 109.75688063 -2.38326025 101.11483569 -2.37962496 92.47265089 C-2.37293886 76.95768359 -2.34402309 61.44277833 -2.2945286 45.92788923 C-2.27801878 40.48583056 -2.27261546 35.04390535 -2.27611899 29.60182405 C-2.27655463 26.23111384 -2.26901418 22.86045462 -2.25944328 19.48975945 C-2.2567517 17.92318235 -2.25752703 16.35659505 -2.26195335 14.7900219 C-2.26756117 12.65884351 -2.26108632 10.52803739 -2.2515564 8.3968811 C-2.25105317 6.60566802 -2.25105317 6.60566802 -2.25053978 4.77826881 C-2 2 -2 2 0 0 Z " fill="#E26B00" transform="translate(1034,43)"/>
<path d="M0 0 C0.07031158 19.41159859 0.12309611 38.82317106 0.15543652 58.23487091 C0.17085679 67.2495603 0.19185289 76.26417023 0.22631836 85.27880859 C0.25636984 93.14274227 0.2756101 101.00661835 0.28226548 108.87060785 C0.28615127 113.02838943 0.29518043 117.18600633 0.31719017 121.34373474 C0.33780524 125.27043651 0.34378427 129.19690839 0.33932304 133.12365913 C0.34013722 134.55212727 0.3459521 135.98060445 0.35761642 137.40902519 C0.55036554 162.26762093 -6.64938473 184.98608864 -23 204 C-23.49113281 204.62390625 -23.98226562 205.2478125 -24.48828125 205.890625 C-37.14383435 221.71897873 -58.40914663 231.5960909 -78 235 C-82.78020059 235.41322688 -87.51635723 235.47769916 -92.3125 235.4375 C-93.58488525 235.42992676 -94.85727051 235.42235352 -96.16821289 235.41455078 C-105.72113538 235.24743715 -114.01357292 234.29946354 -123 231 C-124.20269531 230.56429687 -125.40539062 230.12859375 -126.64453125 229.6796875 C-139.36647768 224.63501535 -150.6033391 216.95158182 -160 207 C-160 206.34 -160 205.68 -160 205 C-154.64654047 204.51680809 -154.64654047 204.51680809 -151.7890625 206.65234375 C-151.07492188 207.40644531 -150.36078125 208.16054687 -149.625 208.9375 C-133.71688656 224.1051457 -111.64509284 230.68487539 -90.0234375 230.1875 C-65.51448111 229.24710839 -44.12628116 218.78061808 -27.1875 201.3125 C-21.69560515 194.88147071 -17.85404281 187.48060946 -14 180 C-13.40832031 178.88109375 -12.81664062 177.7621875 -12.20703125 176.609375 C-5.7968047 163.75726647 -4.54735969 150.83495481 -4.61523438 136.66699219 C-4.61111551 135.20168133 -4.60564697 133.73637375 -4.59895325 132.27107239 C-4.58735123 129.15117954 -4.58469872 126.03146296 -4.58930969 122.91155243 C-4.59618532 117.9779119 -4.58014505 113.04449918 -4.56091309 108.11090088 C-4.52008326 96.76635735 -4.50849045 85.42182176 -4.49738312 74.0772171 C-4.48687168 63.63745821 -4.47016898 53.1978107 -4.42928743 42.75812078 C-4.41093018 37.85235902 -4.40703761 32.94686316 -4.41422272 28.04107523 C-4.41574094 25.00023906 -4.4049862 21.95953722 -4.39084435 18.91873741 C-4.3868325 17.50738976 -4.38798234 16.09601679 -4.39461708 14.68467903 C-4.40296432 12.7619443 -4.39129843 10.8391534 -4.37854004 8.91644287 C-4.37747128 7.3016485 -4.37747128 7.3016485 -4.37638092 5.65423203 C-4 3 -4 3 -2.53884125 1.13022232 C-1 0 -1 0 0 0 Z " fill="#7C8896" transform="translate(185,43)"/>
<path d="M0 0 C0 0.66 0 1.32 0 2 C0.7734375 1.51466797 0.7734375 1.51466797 1.5625 1.01953125 C4.79395534 -0.33208709 7.50532385 -0.30139404 11 -0.3125 C12.8253125 -0.33763672 12.8253125 -0.33763672 14.6875 -0.36328125 C18.23338972 0.02559581 19.68949844 0.2911361 22 3 C23.269106 10.6684117 21.78423844 18.52850152 20 26 C13.4 26 6.8 26 0 26 C0.66 22.37 1.32 18.74 2 15 C0.68 15 -0.64 15 -2 15 C-2.08636719 15.75796875 -2.17273437 16.5159375 -2.26171875 17.296875 C-3.94605163 30.95696918 -6.52536793 44.46508488 -9 58 C-14.61 58 -20.22 58 -26 58 C-25.41512824 47.28039734 -23.512495 36.89344838 -21.56152344 26.35083008 C-20.99449762 23.28272734 -20.43806832 20.21283052 -19.8828125 17.14257812 C-19.52665917 15.19519946 -19.16991059 13.24792955 -18.8125 11.30078125 C-18.64580811 10.3811409 -18.47911621 9.46150055 -18.30737305 8.51399231 C-18.15051025 7.67188705 -17.99364746 6.8297818 -17.83203125 5.9621582 C-17.69514893 5.218918 -17.5582666 4.4756778 -17.41723633 3.70991516 C-17 2 -17 2 -16 1 C-13.8798986 0.76345976 -11.75311717 0.58548166 -9.625 0.4375 C-8.46226563 0.35371094 -7.29953125 0.26992188 -6.1015625 0.18359375 C-4.07034334 0.06335785 -2.03477467 0 0 0 Z " fill="#8A97A6" transform="translate(1125,41)"/>
<path d="M0 0 C4 3 4 3 4.49219131 5.35254955 C4.48850414 6.28632585 4.48481697 7.22010214 4.48101807 8.18217468 C4.48651672 9.25489624 4.49201538 10.3276178 4.49768066 11.43284607 C4.48329956 12.60960403 4.46891846 13.786362 4.45410156 14.9987793 C4.45468567 16.23792084 4.45526978 17.47706238 4.45587158 18.75375366 C4.45356034 22.15260809 4.43348554 25.55049366 4.40557575 28.94917655 C4.38058983 32.50057868 4.37822234 36.05199338 4.37347412 39.60346985 C4.361036 46.32898685 4.32820334 53.05424412 4.28807616 59.77964669 C4.24338425 67.43612397 4.22137795 75.09261357 4.20129442 82.74918878 C4.15947116 98.49963525 4.08610871 114.24972392 4 130 C12.91 130 21.82 130 31 130 C30.98428955 126.19355957 30.9685791 122.38711914 30.95239258 118.46533203 C30.90277725 105.91642614 30.86943075 93.36752183 30.84456348 80.81854439 C30.82908001 73.20694106 30.8079624 65.59543051 30.77368164 57.98388672 C30.74382438 51.35136698 30.72443577 44.71891441 30.71773452 38.08632934 C30.71381597 34.57285047 30.70457657 31.05956379 30.68280983 27.54614639 C30.65873485 23.62854602 30.65802764 19.71113543 30.65942383 15.79345703 C30.648638 14.62245453 30.63785217 13.45145203 30.6267395 12.2449646 C30.63086349 11.18203186 30.63498749 10.11909912 30.63923645 9.0239563 C30.63647107 8.09663256 30.63370569 7.16930882 30.63085651 6.21388435 C30.75267386 5.48330252 30.87449121 4.75272068 31 4 C31.99 3.34 32.98 2.68 34 2 C34 45.89 34 89.78 34 135 C22.78 135 11.56 135 0 135 C0 90.45 0 45.9 0 0 Z " fill="#EA6F00" transform="translate(694,142)"/>
<path d="M0 0 C0.66 0.99 1.32 1.98 2 3 C2.825 2.649375 3.65 2.29875 4.5 1.9375 C8.60216282 0.83870639 11.98613452 0.63636432 16 2 C18.58839511 3.76637171 20.8109786 5.76309376 23 8 C22.67 8.99 22.34 9.98 22 11 C21.01 11.33 20.02 11.66 19 12 C19 11.34 19 10.68 19 10 C17.02 10.33 15.04 10.66 13 11 C12.34922827 14.16567207 11.7053016 17.33270077 11.0625 20.5 C10.88009766 21.386875 10.69769531 22.27375 10.50976562 23.1875 C9.67864634 27.29776263 8.92078285 31.36066956 8.46875 35.53125 C8 39 8 39 6.4375 41 C5.7259375 41.495 5.7259375 41.495 5 42 C6.3303125 42.185625 6.3303125 42.185625 7.6875 42.375 C10.79479596 42.96128226 13.25504034 43.43145162 16 45 C17.49754918 49.37187745 16.59393372 52.89796367 15.5625 57.3125 C15.13130859 59.19388672 15.13130859 59.19388672 14.69140625 61.11328125 C14.46324219 62.06589844 14.23507812 63.01851562 14 64 C12.02 64.495 12.02 64.495 10 65 C8.54525489 62.09050978 9.66906745 60.06006967 10.52734375 57.0703125 C11.14838337 54.70398652 11.14838337 54.70398652 11 51 C9.515 51.495 9.515 51.495 8 52 C6.04524991 52.1447963 4.0848862 52.22067502 2.125 52.25 C0.58199219 52.28867188 0.58199219 52.28867188 -0.9921875 52.328125 C-4.41220687 51.95503198 -6.25025853 51.03027507 -9 49 C-12.83922337 41.32155326 -9.14124325 29.16477487 -7.75 21.1875 C-7.54503906 19.90423828 -7.34007812 18.62097656 -7.12890625 17.29882812 C-6.80986328 15.43967773 -6.80986328 15.43967773 -6.484375 13.54296875 C-6.29584961 12.42946045 -6.10732422 11.31595215 -5.91308594 10.16870117 C-4.77888783 6.23266981 -2.92074686 2.92074686 0 0 Z " fill="#8D9AAA" transform="translate(1063,44)"/>
<path d="M0 0 C4.71525259 3.54464463 7.13652193 7.56803893 8.68359375 13.265625 C9.35540678 21.27503233 9.69814273 29.1430381 5.68359375 36.265625 C1.50453023 40.85743554 -2.88843925 43.90601538 -9.18359375 44.56640625 C-17.00187091 44.59686707 -21.92919507 44.11396167 -28.06640625 38.953125 C-33.25908575 32.75075782 -34.65787451 26.47249548 -34.53515625 18.48046875 C-33.89784319 12.02767407 -32.04231408 5.85253554 -27.31640625 1.265625 C-19.49599218 -4.20866485 -8.30473606 -4.90342004 0 0 Z M-22.31640625 8.265625 C-26.10540978 14.45433077 -26.40479423 21.34066938 -24.84765625 28.38671875 C-23.18622273 32.98532938 -20.64087596 35.18655303 -16.31640625 37.265625 C-11.11740489 37.91550017 -7.6921754 37.14965467 -3.31640625 34.265625 C0.66031685 29.05474646 1.11092903 23.67565427 0.68359375 17.265625 C-0.28240425 12.4274486 -1.3880652 9.1507874 -5.00390625 5.703125 C-11.64831042 2.81970432 -16.79358059 3.25655057 -22.31640625 8.265625 Z " fill="#77818D" transform="translate(702.31640625,327.734375)"/>
<path d="M0 0 C21 0 21 0 28 4 C30.96654048 8.0923467 30.76977185 13.16034528 30 18 C28.31712073 21.12177233 26.2172593 23.39137035 23 25 C24.57893091 29.54593296 26.98381181 33.27171028 29.625 37.25 C34 43.87960123 34 43.87960123 34 45 C30.28421276 46.20960733 27.67157484 46.44061792 24 45 C21.30012587 41.71589717 19.41985845 37.94835155 17.57666016 34.13500977 C17.19558105 33.36987061 16.81450195 32.60473145 16.421875 31.81640625 C16.09799805 31.10943604 15.77412109 30.40246582 15.44042969 29.67407227 C13.70184552 27.29203352 13.70184552 27.29203352 8 27 C8 32.94 8 38.88 8 45 C5.36 45 2.72 45 0 45 C0 30.15 0 15.3 0 0 Z M8 7 C8 11.62 8 16.24 8 21 C14.91295034 20.72728459 14.91295034 20.72728459 21 18 C22.04621254 14.23363485 22.57481508 12.06751372 20.6875 8.5625 C16.48264763 6.11781839 12.81185103 6.74674468 8 7 Z " fill="#77818D" transform="translate(763,326)"/>
<path d="M0 0 C21 0 21 0 28 4 C30.96654048 8.0923467 30.76977185 13.16034528 30 18 C28.31712073 21.12177233 26.2172593 23.39137035 23 25 C24.57893091 29.54593296 26.98381181 33.27171028 29.625 37.25 C34 43.87960123 34 43.87960123 34 45 C30.28421276 46.20960733 27.67157484 46.44061792 24 45 C21.30012587 41.71589717 19.41985845 37.94835155 17.57666016 34.13500977 C17.19558105 33.36987061 16.81450195 32.60473145 16.421875 31.81640625 C16.09799805 31.10943604 15.77412109 30.40246582 15.44042969 29.67407227 C13.70184552 27.29203352 13.70184552 27.29203352 8 27 C8 32.94 8 38.88 8 45 C5.36 45 2.72 45 0 45 C0 30.15 0 15.3 0 0 Z M8 7 C8 11.62 8 16.24 8 21 C14.91295034 20.72728459 14.91295034 20.72728459 21 18 C22.04621254 14.23363485 22.57481508 12.06751372 20.6875 8.5625 C16.48264763 6.11781839 12.81185103 6.74674468 8 7 Z " fill="#77818D" transform="translate(447,326)"/>
<path d="M0 0 C21 0 21 0 28 4 C30.96654048 8.0923467 30.76977185 13.16034528 30 18 C28.31712073 21.12177233 26.2172593 23.39137035 23 25 C24.57893091 29.54593296 26.98381181 33.27171028 29.625 37.25 C34 43.87960123 34 43.87960123 34 45 C30.28421276 46.20960733 27.67157484 46.44061792 24 45 C21.30012587 41.71589717 19.41985845 37.94835155 17.57666016 34.13500977 C17.19558105 33.36987061 16.81450195 32.60473145 16.421875 31.81640625 C16.09799805 31.10943604 15.77412109 30.40246582 15.44042969 29.67407227 C13.70184552 27.29203352 13.70184552 27.29203352 8 27 C8 32.94 8 38.88 8 45 C5.36 45 2.72 45 0 45 C0 30.15 0 15.3 0 0 Z M8 7 C8 11.62 8 16.24 8 21 C14.91295034 20.72728459 14.91295034 20.72728459 21 18 C22.04621254 14.23363485 22.57481508 12.06751372 20.6875 8.5625 C16.48264763 6.11781839 12.81185103 6.74674468 8 7 Z " fill="#77818D" transform="translate(208,326)"/>
<path d="M0 0 C2.97 0 5.94 0 9 0 C12.733938 8.73935978 16.17378593 17.56799778 19.50415039 26.46728516 C20.32490565 28.65811419 21.15157103 30.84665698 21.97851562 33.03515625 C22.50295846 34.43215871 23.02706025 35.82928927 23.55078125 37.2265625 C23.79758133 37.87855621 24.04438141 38.53054993 24.29866028 39.20230103 C26 43.77073094 26 43.77073094 26 46 C23.03 46 20.06 46 17 46 C15.02 40.555 15.02 40.555 13 35 C7.39 34.67 1.78 34.34 -4 34 C-4.33 35.98 -4.66 37.96 -5 40 C-5.93942486 42.02915769 -6.92598385 44.03875312 -8 46 C-10.64 46 -13.28 46 -16 46 C-15.2351876 40.94499731 -13.38962948 36.31290003 -11.62109375 31.54296875 C-11.28956802 30.64000565 -10.9580423 29.73704254 -10.61647034 28.80671692 C-9.56024931 25.93236692 -8.49894844 23.05992318 -7.4375 20.1875 C-6.71906487 18.23514971 -6.00096207 16.2826771 -5.28320312 14.33007812 C-3.52598381 9.55195915 -1.7642073 4.77554301 0 0 Z M4 10 C3.16301614 12.45714547 2.33027576 14.91558857 1.5 17.375 C1.26152344 18.07367188 1.02304687 18.77234375 0.77734375 19.4921875 C-0.53735912 23.16403079 -0.53735912 23.16403079 -1 27 C2.96 27 6.92 27 11 27 C10.2175752 24.35110382 9.42462432 21.70620175 8.625 19.0625 C8.40328125 18.30775391 8.1815625 17.55300781 7.953125 16.77539062 C7.36037548 14.83152088 6.68548828 12.91313548 6 11 C5.34 10.67 4.68 10.34 4 10 Z " fill="#77818D" transform="translate(934,325)"/>
<path d="M0 0 C2.97 0 5.94 0 9 0 C12.733938 8.73935978 16.17378593 17.56799778 19.50415039 26.46728516 C20.32490565 28.65811419 21.15157103 30.84665698 21.97851562 33.03515625 C22.50295846 34.43215871 23.02706025 35.82928927 23.55078125 37.2265625 C23.79758133 37.87855621 24.04438141 38.53054993 24.29866028 39.20230103 C26 43.77073094 26 43.77073094 26 46 C23.03 46 20.06 46 17 46 C15.02 40.555 15.02 40.555 13 35 C7.39 34.67 1.78 34.34 -4 34 C-4.33 35.98 -4.66 37.96 -5 40 C-5.93942486 42.02915769 -6.92598385 44.03875312 -8 46 C-10.64 46 -13.28 46 -16 46 C-15.2351876 40.94499731 -13.38962948 36.31290003 -11.62109375 31.54296875 C-11.28956802 30.64000565 -10.9580423 29.73704254 -10.61647034 28.80671692 C-9.56024931 25.93236692 -8.49894844 23.05992318 -7.4375 20.1875 C-6.71906487 18.23514971 -6.00096207 16.2826771 -5.28320312 14.33007812 C-3.52598381 9.55195915 -1.7642073 4.77554301 0 0 Z M4 10 C3.16301614 12.45714547 2.33027576 14.91558857 1.5 17.375 C1.26152344 18.07367188 1.02304688 18.77234375 0.77734375 19.4921875 C-0.53735912 23.16403079 -0.53735912 23.16403079 -1 27 C2.96 27 6.92 27 11 27 C10.2175752 24.35110382 9.42462432 21.70620175 8.625 19.0625 C8.40328125 18.30775391 8.1815625 17.55300781 7.953125 16.77539062 C7.36037548 14.83152088 6.68548828 12.91313548 6 11 C5.34 10.67 4.68 10.34 4 10 Z " fill="#77818D" transform="translate(134,325)"/>
<path d="M0 0 C1.98 0.99 1.98 0.99 4 2 C4 16.19 4 30.38 4 45 C7.3 43.68 10.6 42.36 14 41 C27.39012612 37.9904404 41.00312732 40.15796423 52.8125 47.125 C63.66833771 54.63935011 70.90705526 64.87609742 73.65625 77.85546875 C75.80568672 91.26502283 75.1465744 104.8386772 67.359375 116.4453125 C64.21393767 120.58908428 60.89793704 124.54754148 57 128 C56.34 128 55.68 128 55 128 C55.3903998 125.26720143 55.85057793 124.14627634 57.85546875 122.18359375 C65.87446843 114.0185285 69.46803117 101.58055576 70.25 90.4375 C70.0176204 78.26080886 65.61833529 66.80707214 57.5 57.75 C47.58326208 48.4290351 35.55234362 45.51290932 22.34765625 45.7109375 C16.73060131 45.95192924 12.05613989 47.63042974 7 50 C4.69 50.99 2.38 51.98 0 53 C0 35.51 0 18.02 0 0 Z " fill="#7F8A98" transform="translate(450,94)"/>
<path d="M0 0 C1.96867466 1.0976944 1.96867466 1.0976944 4 3 C4.50057125 5.86843109 4.50057125 5.86843109 4.50120544 9.43688965 C4.50673984 10.09322718 4.51227424 10.74956471 4.51797634 11.42579126 C4.53161308 13.62994669 4.51659826 15.83297553 4.50170898 18.03710938 C4.50549139 19.6157479 4.51099079 21.19438312 4.51808167 22.77301025 C4.53207305 27.06696308 4.5208368 31.36051678 4.50437045 35.65444756 C4.49052761 40.15232539 4.4969799 44.65017985 4.50050354 49.14807129 C4.5032085 56.71075874 4.48971321 64.27328776 4.46655273 71.8359375 C4.44001804 80.56034498 4.43817033 89.28448626 4.4499411 98.00892019 C4.46075551 106.41254145 4.45449819 114.81606708 4.44038582 123.21968079 C4.43464993 126.7887856 4.43468994 130.35781988 4.43945122 133.92692566 C4.44425525 138.1426185 4.4339788 142.35802359 4.41249657 146.5736618 C4.40697201 148.11386393 4.40642313 149.65409396 4.41144943 151.19429779 C4.44232893 162.02211715 3.5065867 171.86819989 -1.5625 181.625 C-1.97628906 182.44226563 -2.39007812 183.25953125 -2.81640625 184.1015625 C-4 186 -4 186 -6 187 C-6.66 186.67 -7.32 186.34 -8 186 C-7.03801609 181.4305764 -5.02841978 177.32623334 -3.15625 173.0703125 C-1.15995455 167.76933877 -0.87195386 162.68167673 -0.84178162 157.05239868 C-0.83684364 156.37756955 -0.83190566 155.70274041 -0.82681805 155.00746191 C-0.81153284 152.75969699 -0.80310697 150.51196043 -0.79467773 148.26416016 C-0.78509214 146.64752964 -0.77508166 145.03090159 -0.76467896 143.41427612 C-0.73769766 139.03462166 -0.71665151 134.65495649 -0.69667697 130.27526522 C-0.67477552 125.69483279 -0.64740721 121.11443309 -0.62062073 116.5340271 C-0.57075001 107.86441605 -0.52579037 99.19478678 -0.48259836 90.52514017 C-0.4331779 80.65334136 -0.37827763 70.78157541 -0.32291877 60.9098084 C-0.20918503 40.60656955 -0.10232731 20.30329933 0 0 Z " fill="#EC7000" transform="translate(1003,43)"/>
<path d="M0 0 C21 0 21 0 27 4 C30.38509352 7.83643932 30.51632897 11.63432308 30.34765625 16.5625 C29.82190495 20.24866644 28.51185609 22.28983949 26 25 C20.59686274 28.91727451 14.45547273 28.64136263 8 29 C8 34.28 8 39.56 8 45 C5.36 45 2.72 45 0 45 C0 30.15 0 15.3 0 0 Z M8 7 C8 11.95 8 16.9 8 22 C14.90033499 21.95249254 14.90033499 21.95249254 20.6875 18.8125 C22.32667744 15.29997692 22.19308162 13.65878362 21 10 C19.82242911 8.24400992 19.82242911 8.24400992 18 7 C15.48710325 6.63786432 15.48710325 6.63786432 12.8125 6.8125 C11.224375 6.874375 9.63625 6.93625 8 7 Z " fill="#77818D" transform="translate(589,326)"/>
<path d="M0 0 C8.58 0 17.16 0 26 0 C26 2.31 26 4.62 26 7 C20.06 7 14.12 7 8 7 C8 10.63 8 14.26 8 18 C13.61 18 19.22 18 25 18 C25 20.31 25 22.62 25 25 C19.39 25 13.78 25 8 25 C8 29.29 8 33.58 8 38 C13.94 38 19.88 38 26 38 C26 40.31 26 42.62 26 45 C17.42 45 8.84 45 0 45 C0 30.15 0 15.3 0 0 Z " fill="#77818D" transform="translate(369,326)"/>
<path d="M0 0 C8.58 0 17.16 0 26 0 C26 2.31 26 4.62 26 7 C20.06 7 14.12 7 8 7 C8 10.63 8 14.26 8 18 C13.61 18 19.22 18 25 18 C25 20.31 25 22.62 25 25 C19.39 25 13.78 25 8 25 C8 29.29 8 33.58 8 38 C13.94 38 19.88 38 26 38 C26 40.31 26 42.62 26 45 C17.42 45 8.84 45 0 45 C0 30.15 0 15.3 0 0 Z " fill="#77818D" transform="translate(291,326)"/>
<path d="M0 0 C1.96867466 1.13607883 1.96867466 1.13607883 4 3 C4.50057125 5.61575985 4.50057125 5.61575985 4.50120544 8.82273865 C4.51103958 10.03798721 4.52087372 11.25323578 4.53100586 12.50531006 C4.52163309 13.8543729 4.51185374 15.20343297 4.50170898 16.55249023 C4.50549181 17.97187333 4.51099156 19.39125274 4.51808167 20.81062317 C4.53206998 24.67078852 4.52083809 28.53050971 4.50437045 32.39065051 C4.49051981 36.43695599 4.49698097 40.48323565 4.50050354 44.52955627 C4.50320844 51.33479963 4.48971565 58.13986692 4.46655273 64.94506836 C4.44003727 72.78900726 4.43816415 80.63264998 4.4499411 88.47661823 C4.46076807 96.03768886 4.45448721 103.59865339 4.44038582 111.15971565 C4.43465877 114.36794637 4.43468291 117.5760986 4.43945122 120.78433037 C4.44426678 124.57733904 4.4339325 128.37002901 4.41249657 132.16297722 C4.40438204 134.20028034 4.41073221 136.23762547 4.41769409 138.27493286 C4.29505939 153.63581776 0.57042933 166.51090208 -10.3125 177.75 C-13.67479675 181 -13.67479675 181 -16 181 C-15.64019717 177.88170881 -14.76672245 176.72627197 -12.6796875 174.27734375 C-10.01432341 171.14746251 -8.15396397 167.87456606 -6.3125 164.1875 C-5.73113281 163.04667969 -5.14976562 161.90585938 -4.55078125 160.73046875 C-0.62148067 151.88176336 -0.69512423 142.9004081 -0.68115234 133.39233398 C-0.67183913 131.93289137 -0.66166841 130.47345402 -0.65071106 129.01402283 C-0.62355392 125.07667592 -0.60830434 121.1393645 -0.59528303 117.20194888 C-0.57958955 113.07795594 -0.55281934 108.9540348 -0.5272522 104.83009338 C-0.48057402 97.03182426 -0.44377706 89.23354146 -0.41057932 81.43520457 C-0.37228022 72.55241175 -0.3228906 63.66969126 -0.27259517 54.78695953 C-0.16943845 36.52469271 -0.08012546 18.26238167 0 0 Z " fill="#84909F" transform="translate(137,41)"/>
<path d="M0 0 C-0.66 2.31 -1.32 4.62 -2 7 C-3.010625 6.67 -4.02125 6.34 -5.0625 6 C-10.90290078 4.35149978 -16.46903057 4.29882888 -22 7 C-23.40257876 9.38119246 -23.40257876 9.38119246 -24 12 C-24.33 12.99 -24.66 13.98 -25 15 C-25.74100239 24.51870661 -25.74100239 24.51870661 -22 33 C-18.30528466 36.26004295 -15.00454698 36.32971682 -10.29296875 36.171875 C-7.15635511 35.93676256 -4.10089841 35.5278125 -1 35 C-1 37.31 -1 39.62 -1 42 C-7.87317105 45.05474269 -16.29016229 45.1670305 -23.4375 42.875 C-28.18827752 40.78110221 -30.88161214 37.38616326 -33.08203125 32.69140625 C-35.94715737 24.29110031 -35.86369005 15.02350233 -32 7 C-29.07546881 2.19541305 -25.68563087 -0.89712822 -20.2734375 -2.56640625 C-12.89102086 -3.97439293 -6.63291864 -3.53755661 0 0 Z " fill="#77818D" transform="translate(73,328)"/>
<path d="M0 0 C0 11.55 0 23.1 0 35 C-17.4375 35.3125 -17.4375 35.3125 -22.88452148 35.38793945 C-35.36744827 35.63317319 -45.35429923 36.9323612 -54.5 46.4375 C-66.57478656 60.86312996 -67.48246826 79.10054003 -68 97 C-68.99 97 -69.98 97 -71 97 C-71.6453936 56.07211655 -71.6453936 56.07211655 -56.04296875 39.8359375 C-48.70578555 33.24229294 -41.41411387 30.66993867 -31.5390625 30.8046875 C-30.74849457 30.8075174 -29.95792664 30.81034729 -29.1434021 30.81326294 C-26.63710916 30.82439045 -24.13118355 30.84948074 -21.625 30.875 C-19.91797394 30.88503942 -18.21094223 30.89416359 -16.50390625 30.90234375 C-12.3357976 30.92430537 -8.16796092 30.95878329 -4 31 C-4.01571045 30.16750732 -4.0314209 29.33501465 -4.04760742 28.47729492 C-4.09876642 25.38552144 -4.1363648 22.29396382 -4.16479492 19.2019043 C-4.18728333 17.20672299 -4.22540198 15.21173787 -4.26367188 13.21679688 C-4.27333984 11.96318359 -4.28300781 10.70957031 -4.29296875 9.41796875 C-4.3086792 8.26063232 -4.32438965 7.1032959 -4.34057617 5.91088867 C-4 3 -4 3 -2.54418945 1.09887695 C-1 0 -1 0 0 0 Z " fill="#DD6900" transform="translate(686,43)"/>
<path d="M0 0 C11.22 0 22.44 0 34 0 C34 2.31 34 4.62 34 7 C29.71 7 25.42 7 21 7 C21 19.54 21 32.08 21 45 C18.36 45 15.72 45 13 45 C13 32.46 13 19.92 13 7 C8.71 7 4.42 7 0 7 C0 4.69 0 2.38 0 0 Z " fill="#77818D" transform="translate(841,326)"/>
<path d="M0 0 C0.63164063 0.50789062 1.26328125 1.01578125 1.9140625 1.5390625 C1.2540625 1.8690625 0.5940625 2.1990625 -0.0859375 2.5390625 C1.2340625 5.1790625 2.5540625 7.8190625 3.9140625 10.5390625 C0.3701612 8.76711185 -1.34133428 7.47128837 -4.0859375 4.7890625 C-17.98261034 -7.78411769 -35.83827823 -10.1890626 -53.83935547 -9.58398438 C-69.41678176 -8.7307978 -84.32283517 -1.70239994 -95.0859375 9.5390625 C-95.0859375 6.5390625 -95.0859375 6.5390625 -93.6484375 5.0390625 C-93.1328125 4.5440625 -92.6171875 4.0490625 -92.0859375 3.5390625 C-91.7559375 2.5490625 -91.4259375 1.5590625 -91.0859375 0.5390625 C-91.7459375 0.2090625 -92.4059375 -0.1209375 -93.0859375 -0.4609375 C-64.49795805 -19.98855339 -27.95506551 -21.51009363 0 0 Z " fill="#FFA85A" transform="translate(859.0859375,152.4609375)"/>
<path d="M0 0 C2.64 0 5.28 0 8 0 C8 12.54 8 25.08 8 38 C14.27 38 20.54 38 27 38 C27 40.31 27 42.62 27 45 C18.09 45 9.18 45 0 45 C0 30.15 0 15.3 0 0 Z " fill="#77818D" transform="translate(1009,326)"/>
<path d="M0 0 C1.45745458 2.91490916 0.65178964 4.8748385 0.07543945 8.06689453 C-0.26568123 9.97995895 -0.26568123 9.97995895 -0.61369324 11.93167114 C-0.8708631 13.33214448 -1.12855146 14.73252269 -1.38671875 16.1328125 C-1.64783505 17.56806385 -1.90872148 19.00335704 -2.16938782 20.43869019 C-2.71884896 23.45414494 -3.27369318 26.46855351 -3.83178711 29.48242188 C-4.54281389 33.32657791 -5.23665113 37.17360865 -5.92584515 41.02173042 C-6.46047508 43.99175513 -7.0063767 46.95962836 -7.55536842 49.92702866 C-7.81559494 51.34314856 -8.07193387 52.75998898 -8.32416344 54.17755508 C-11.42326044 71.52908114 -11.42326044 71.52908114 -16.98046875 76.921875 C-25.08235725 81.24706112 -35.22577164 80.45262225 -44 79 C-47.96330792 77.37653232 -49.60533034 76.59200449 -52 73 C-52.1953125 70.30078125 -52.1953125 70.30078125 -52.125 67.3125 C-52.10695313 66.31863281 -52.08890625 65.32476562 -52.0703125 64.30078125 C-52.04710937 63.54152344 -52.02390625 62.78226563 -52 62 C-50.51171875 63.30078125 -50.51171875 63.30078125 -49 65 C-48.8125 68.1875 -48.8125 68.1875 -49 71 C-40.74552449 74.34640899 -30.38042062 76.17240818 -21.75 72.75 C-17.99652025 70.36142198 -16.33247147 68.46956325 -15.33984375 64.08203125 C-15.14068359 62.46361328 -15.14068359 62.46361328 -14.9375 60.8125 C-14.43650106 57.10017996 -13.94395293 53.45391212 -13.0625 49.8125 C-11.74897465 44.27692889 -10.92781062 38.64888376 -10.05297852 33.03051758 C-9.10639523 27.10639523 -9.10639523 27.10639523 -8 26 C-7.67327158 23.67131745 -7.3892579 21.33659617 -7.125 19 C-5.62812557 6.89415383 -5.62812557 6.89415383 -3 2 C-2.01 1.34 -1.02 0.68 0 0 Z " fill="#7C8795" transform="translate(1101,42)"/>
<path d="M0 0 C0.33 0 0.66 0 1 0 C1 11.22 1 22.44 1 34 C-3.95 36.475 -3.95 36.475 -9 39 C-17.67212062 44.60989568 -23.06415034 53.61886561 -25.66796875 63.546875 C-27.12213445 74.29059332 -26.12846601 84.80730098 -20 94 C-20.375 96.1875 -20.375 96.1875 -21 98 C-24 97 -24 97 -25.31640625 95.06640625 C-31.23722599 83.16908508 -33.68692958 69.19983972 -29.5 56.25 C-24.32119199 44.03891585 -15.81770246 35.68875075 -4 30 C-3.98541748 29.23333008 -3.97083496 28.46666016 -3.95581055 27.67675781 C-3.8813078 24.20066507 -3.78465354 20.72553032 -3.6875 17.25 C-3.66494141 16.0434375 -3.64238281 14.836875 -3.61914062 13.59375 C-3.58369141 12.43359375 -3.54824219 11.2734375 -3.51171875 10.078125 C-3.48553467 9.00981445 -3.45935059 7.94150391 -3.43237305 6.84082031 C-2.95580656 3.70963589 -2.15577008 2.28197324 0 0 Z " fill="#E66D00" transform="translate(951,131)"/>
<path d="M0 0 C0.22573052 8.00089303 -0.1384868 15.20491347 -2 23 C-8.6 23 -15.2 23 -22 23 C-21.34 19.37 -20.68 15.74 -20 12 C-21.32 12 -22.64 12 -24 12 C-24.08636719 12.75796875 -24.17273437 13.5159375 -24.26171875 14.296875 C-25.94605163 27.95696918 -28.52536793 41.46508488 -31 55 C-36.61 55 -42.22 55 -48 55 C-48 54.34 -48 53.68 -48 53 C-43.52771369 50.0184758 -39.22507431 50.87705708 -34 51 C-33.93196167 49.84685303 -33.93196167 49.84685303 -33.86254883 48.67041016 C-33.29111785 40.13541983 -32.16001756 31.79833753 -30.6875 23.375 C-30.48705078 22.12332031 -30.28660156 20.87164062 -30.08007812 19.58203125 C-29.87189453 18.38707031 -29.66371094 17.19210938 -29.44921875 15.9609375 C-29.26705811 14.88634277 -29.08489746 13.81174805 -28.8972168 12.70458984 C-27.84475969 9.53204022 -26.92834473 8.55231822 -24 7 C-20.32706204 7.22037628 -18.63033454 7.36966546 -16 10 C-15.66666667 15.33333333 -15.66666667 15.33333333 -17 18 C-13.04 18 -9.08 18 -5 18 C-4.96261719 16.95199219 -4.92523437 15.90398438 -4.88671875 14.82421875 C-4.82105485 13.44527695 -4.75460765 12.06637229 -4.6875 10.6875 C-4.66494141 9.99720703 -4.64238281 9.30691406 -4.61914062 8.59570312 C-4.3464097 3.46340295 -4.3464097 3.46340295 -2.51953125 1.01953125 C-1 0 -1 0 0 0 Z " fill="#7B8795" transform="translate(1147,44)"/>
<path d="M0 0 C0.33 0.66 0.66 1.32 1 2 C1.66 2.33 2.32 2.66 3 3 C2.52949219 4.00417969 2.05898438 5.00835937 1.57421875 6.04296875 C0.9446817 7.42419183 0.31581203 8.80571923 -0.3125 10.1875 C-0.62123047 10.84169922 -0.92996094 11.49589844 -1.24804688 12.16992188 C-6.45585474 23.73673724 -7.40942448 35.06523604 -7.16436386 47.54288101 C-7.11608956 50.06517891 -7.08950125 52.58692493 -7.06838989 55.10958862 C-7.0047237 62.27012995 -6.90275201 69.4299616 -6.78759766 76.58984375 C-6.71822784 80.99436216 -6.67303174 85.3986051 -6.64242935 89.80355453 C-6.62565702 91.47585233 -6.59925893 93.1480824 -6.5630455 94.82007217 C-6.51278974 97.14620675 -6.49300142 99.47076601 -6.47998047 101.79736328 C-6.45729095 102.48616074 -6.43460144 103.17495819 -6.41122437 103.8846283 C-6.41891479 105.80349731 -6.41891479 105.80349731 -7 109 C-9.53250122 110.95016479 -9.53250122 110.95016479 -12 112 C-12.07000159 102.23681465 -12.12306283 92.4737178 -12.15543652 82.71033478 C-12.1709867 78.17512547 -12.19202622 73.64008986 -12.22631836 69.10498047 C-12.25929693 64.71532015 -12.27693268 60.32582521 -12.28463173 55.93605042 C-12.29010709 54.27459618 -12.30079526 52.61314934 -12.31719017 50.95176697 C-12.49166317 32.51125686 -9.82363698 16.0088899 0 0 Z " fill="#ED7100" transform="translate(755,164)"/>
<path d="M0 0 C21.74561168 -0.64912274 41.28264325 7.00877036 58.90625 19.125 C58.679375 19.7025 58.4525 20.28 58.21875 20.875 C57.64119807 23.24672477 57.64119807 23.24672477 59.34375 25.375 C60.1171875 26.24125 60.1171875 26.24125 60.90625 27.125 C57.86886092 25.71892775 55.37756082 24.02351974 52.71875 22 C41.985838 14.43313874 29.88334646 9.19847547 16.90625 7.125 C15.78089844 6.93164062 15.78089844 6.93164062 14.6328125 6.734375 C3.92602263 5.22189167 -6.86701983 5.69630638 -17.38671875 8.078125 C-20.09375 8.125 -20.09375 8.125 -22.45703125 6.171875 C-22.99714844 5.49640625 -23.53726562 4.8209375 -24.09375 4.125 C-16.01970666 1.91920465 -8.34086066 0.49796183 0 0 Z " fill="#B3BCC6" transform="translate(474.09375,88.875)"/>
<path d="M0 0 C0.33 0 0.66 0 1 0 C0.1520837 9.03469439 -1.57402775 17.875063 -3.27148438 26.78320312 C-4.4081499 32.93710363 -5.42164137 38.73670911 -5 45 C-3.92243398 46.30118564 -3.92243398 46.30118564 -1.34765625 46.1328125 C-0.26355469 46.13023438 0.82054687 46.12765625 1.9375 46.125 C3.01902344 46.12757812 4.10054687 46.13015625 5.21484375 46.1328125 C7.95659663 46.19007789 7.95659663 46.19007789 10 45 C11.99960012 44.960008 14.00047242 44.95653201 16 45 C17.29384979 49.48134729 16.61333104 52.81494316 15.5625 57.3125 C15.13130859 59.19388672 15.13130859 59.19388672 14.69140625 61.11328125 C14.46324219 62.06589844 14.23507812 63.01851562 14 64 C12.02 64.495 12.02 64.495 10 65 C8.54525489 62.09050978 9.66906745 60.06006967 10.52734375 57.0703125 C11.14838337 54.70398652 11.14838337 54.70398652 11 51 C9.515 51.495 9.515 51.495 8 52 C6.04524991 52.1447963 4.0848862 52.22067502 2.125 52.25 C0.58199219 52.28867188 0.58199219 52.28867188 -0.9921875 52.328125 C-4.41220687 51.95503198 -6.25025853 51.03027507 -9 49 C-12.83922337 41.32155326 -9.14124325 29.16477487 -7.75 21.1875 C-7.54503906 19.90423828 -7.34007812 18.62097656 -7.12890625 17.29882812 C-6.80986328 15.43967773 -6.80986328 15.43967773 -6.484375 13.54296875 C-6.29584961 12.42946045 -6.10732422 11.31595215 -5.91308594 10.16870117 C-4.77888783 6.23266981 -2.92074686 2.92074686 0 0 Z " fill="#818C9B" transform="translate(1063,44)"/>
<path d="M0 0 C1 3 1 3 -0.07421875 5.3046875 C-0.87279297 6.57699219 -0.87279297 6.57699219 -1.6875 7.875 C-2.20699219 8.71804687 -2.72648437 9.56109375 -3.26171875 10.4296875 C-10.9309228 21.76976899 -22.20850498 28.38657369 -35.37109375 31.57421875 C-48.92714455 33.76977527 -60.3429138 30.803109 -72.2578125 24.34375 C-74.29324295 22.77382158 -74.87328794 21.27204745 -76 19 C-76.99 18.67 -77.98 18.34 -79 18 C-79 16.02 -79 14.04 -79 12 C-78.34 12 -77.68 12 -77 12 C-76.29875 12.721875 -75.5975 13.44375 -74.875 14.1875 C-66.82712596 22.46932386 -56.0078548 26.36892694 -44.625 26.5625 C-33.97459041 26.48812068 -24.93563774 22.61074928 -16 17 C-16 17.99 -16 18.98 -16 20 C-8.85407089 14.35943159 -3.95817395 8.19379 0 0 Z " fill="#AFB8C3" transform="translate(137,202)"/>
<path d="M0 0 C1.22847656 -0.00515625 2.45695312 -0.0103125 3.72265625 -0.015625 C6.9375 0.25 6.9375 0.25 9.9375 2.25 C9.63070313 3.09820312 9.32390625 3.94640625 9.0078125 4.8203125 C7.93142617 8.26946287 7.32298682 11.55159223 6.8125 15.125 C6.64492187 16.27742188 6.47734375 17.42984375 6.3046875 18.6171875 C6.18351562 19.48601563 6.06234375 20.35484375 5.9375 21.25 C1.9775 21.25 -1.9825 21.25 -6.0625 21.25 C-5.753125 19.455625 -5.753125 19.455625 -5.4375 17.625 C-5.28503265 15.40003901 -5.28503265 15.40003901 -6.0625 13.25 C-9.12175829 10.68451673 -12.46165807 8.94753977 -16.0625 7.25 C-10.67961113 1.56806175 -7.88481422 -0.03316431 0 0 Z " fill="#8D9AAA" transform="translate(1136.0625,40.75)"/>
<path d="M0 0 C0.65407333 -0.00029205 1.30814667 -0.00058411 1.98204041 -0.00088501 C4.13562464 0.00050402 6.2888593 0.0160447 8.44238281 0.03173828 C9.93882051 0.03546994 11.43526065 0.03831619 12.93170166 0.04031372 C16.86414372 0.04793818 20.79643728 0.0675764 24.7288208 0.08972168 C28.74399812 0.11020573 32.75919951 0.1193209 36.77441406 0.12939453 C44.64818001 0.15082348 52.52182542 0.18494502 60.39550781 0.22705078 C59.28674316 2.69058228 59.28674316 2.69058228 57.39550781 5.22705078 C54.58728027 5.83505249 54.58728027 5.83505249 51.13574219 5.81054688 C49.84430298 5.81339691 48.55286377 5.81624695 47.22229004 5.81918335 C45.8112685 5.79696021 44.40025771 5.77404513 42.98925781 5.75048828 C41.54342448 5.74369837 40.09758008 5.73897647 38.6517334 5.73623657 C34.84501893 5.72281884 31.03923591 5.67851394 27.23284912 5.62866211 C24.12569248 5.5932862 21.01863045 5.5801875 17.91130829 5.56824303 C14.20806602 5.55344876 10.50492312 5.52823086 6.80175781 5.50048828 C6.094561 5.49557751 5.3873642 5.49066673 4.65873718 5.48560715 C2.6575291 5.46932015 0.65639301 5.44481181 -1.34472656 5.41992188 C-3.05323792 5.40063126 -3.05323792 5.40063126 -4.79626465 5.38095093 C-7.60449219 5.22705078 -7.60449219 5.22705078 -10.60449219 4.22705078 C-10.60449219 3.56705078 -10.60449219 2.90705078 -10.60449219 2.22705078 C-7.04254688 0.0147547 -4.14477817 -0.01558187 0 0 Z " fill="#FFAD63" transform="translate(624.6044921875,139.77294921875)"/>
<path d="M0 0 C1.68880076 0.00502523 3.37760296 0.00958632 5.06640625 0.01367188 C9.16930711 0.02459601 13.27213727 0.0418042 17.375 0.0625 C15.85864258 2.52490234 15.85864258 2.52490234 13.375 5.0625 C10.5947801 5.54563092 8.41119207 5.71549951 5.63671875 5.6640625 C4.87889603 5.67206879 4.1210733 5.68007507 3.34028625 5.68832397 C0.91381577 5.71136643 -1.51098565 5.70198521 -3.9375 5.6875 C-25.03958204 5.58930824 -25.03958204 5.58930824 -44.79296875 12.390625 C-47.09485117 13.23481216 -48.34638739 12.85066756 -50.625 12.0625 C-48.96575446 8.12795241 -46.99589468 6.80336458 -43.09375 5.0078125 C-29.09416435 -0.35278833 -14.7320805 -0.07656406 0 0 Z " fill="#FFAA5F" transform="translate(668.625,41.9375)"/>
<path d="M0 0 C6.39183722 0.23243044 9.74885566 1.89636531 14.92578125 5.5703125 C21.48849025 10.09376164 30.48140551 10.66206513 38.19921875 9.53125 C44.13566126 8.16072877 48.84108596 6.18315973 54 3 C54.99 3 55.98 3 57 3 C57 3.66 57 4.32 57 5 C58.65 4.34 60.3 3.68 62 3 C55.49901165 10.5844864 45.88871078 14.44611136 36.0546875 15.37109375 C22.42695287 15.7727192 12.37673085 12.62166969 1.73046875 3.76953125 C0 2 0 2 0 0 Z " fill="#FFA85A" transform="translate(931,233)"/>
<path d="M0 0 C0 1.98 0 3.96 0 6 C1.32 6.33 2.64 6.66 4 7 C4 7.99 4 8.98 4 10 C1.525 9.01 1.525 9.01 -1 8 C-9.16209359 15.97386504 -9.16209359 15.97386504 -16.875 24.375 C-17.67550781 25.29925781 -17.67550781 25.29925781 -18.4921875 26.2421875 C-19.50772951 27.42610953 -20.51280264 28.61908298 -21.5078125 29.8203125 C-24.31602368 32.98138791 -25.58738715 33.96006972 -29.875 34.375 C-30.90625 34.25125 -31.9375 34.1275 -33 34 C-25.03185542 24.52436861 -16.60923485 15.51858472 -7.875 6.75 C-7.21121338 6.08162109 -6.54742676 5.41324219 -5.86352539 4.72460938 C-5.24598389 4.10908203 -4.62844238 3.49355469 -3.9921875 2.859375 C-3.43901855 2.30733398 -2.88584961 1.75529297 -2.31591797 1.18652344 C-1 0 -1 0 0 0 Z " fill="#9BA6B4" transform="translate(58,214)"/>
<path d="M0 0 C1.625 2 1.625 2 3 4 C2.12988281 4.56267578 2.12988281 4.56267578 1.2421875 5.13671875 C-13.00259269 14.46869521 -20.95851389 25.69439032 -28 41 C-29 38 -29 38 -27.8203125 35.22265625 C-27.26085937 34.17980469 -26.70140625 33.13695312 -26.125 32.0625 C-23.52435589 27.2300747 -23.52435589 27.2300747 -22 22 C-22.66 21.67 -23.32 21.34 -24 21 C-8.20696721 0 -8.20696721 0 0 0 Z " fill="#FE8415" transform="translate(618,52)"/>
<path d="M0 0 C2.25639809 -0.00969868 4.51188243 -0.0407175 6.76806641 -0.07226562 C8.20425892 -0.0787966 9.64045794 -0.0840467 11.07666016 -0.08789062 C12.3836084 -0.09723633 13.69055664 -0.10658203 15.03710938 -0.11621094 C18.53609487 0.25499374 19.98013622 0.72623484 22.39697266 3.24023438 C22.39697266 3.90023438 22.39697266 4.56023437 22.39697266 5.24023438 C9.19697266 5.24023438 -4.00302734 5.24023438 -17.60302734 5.24023438 C-13.97999055 -2.00583921 -7.25231523 0.01890675 0 0 Z " fill="#D86700" transform="translate(595.60302734375,271.759765625)"/>
<path d="M0 0 C2.4375 1.5 2.4375 1.5 4 3 C3.67 3.99 3.34 4.98 3 6 C2.01 6.33 1.02 6.66 0 7 C0 6.34 0 5.68 0 5 C-1.98 5.33 -3.96 5.66 -6 6 C-6.11069824 6.56920166 -6.22139648 7.13840332 -6.33544922 7.72485352 C-6.84550444 10.33802403 -7.36021829 12.95025665 -7.875 15.5625 C-8.04902344 16.45775391 -8.22304687 17.35300781 -8.40234375 18.27539062 C-10.45172806 28.63616687 -10.45172806 28.63616687 -12 33 C-12.99 33.66 -13.98 34.32 -15 35 C-15.14700284 28.40491802 -14.63964232 22.19974755 -13.625 15.6875 C-13.49867187 14.80771484 -13.37234375 13.92792969 -13.2421875 13.02148438 C-13.11328125 12.17263672 -12.984375 11.32378906 -12.8515625 10.44921875 C-12.73635254 9.68955811 -12.62114258 8.92989746 -12.50244141 8.1472168 C-10.83640713 1.0273084 -7.15913096 -0.62799394 0 0 Z " fill="#7C8896" transform="translate(1082,49)"/>
<path d="M0 0 C7.50059816 4.61575271 15.08471174 10.62706761 20 18 C19.690625 19.10794922 19.690625 19.10794922 19.375 20.23828125 C18.82872604 24.26136134 20.78710629 26.73199246 22.875 30 C25.32164131 33.90794585 27.45123763 37.32666885 28 42 C25.70139879 39.10147062 23.98790911 36.16821103 22.3125 32.875 C16.856207 22.75728137 9.18800168 14.65084876 0.75 6.9453125 C0.1725 6.30335937 -0.405 5.66140625 -1 5 C-0.75 2.25 -0.75 2.25 0 0 Z " fill="#9DA8B6" transform="translate(337,106)"/>
<path d="M0 0 C15.18 0 30.36 0 46 0 C45.01 1.32 44.02 2.64 43 4 C39.90113256 4.40453196 37.1626358 4.5607793 34.0625 4.53125 C33.18601807 4.5350769 32.30953613 4.53890381 31.40649414 4.54284668 C29.55386201 4.54556799 27.70119161 4.53819146 25.84863281 4.52148438 C23.01019771 4.50007691 20.17429372 4.52127761 17.3359375 4.546875 C15.53645274 4.54423176 13.73696955 4.53910686 11.9375 4.53125 C11.08744385 4.53934692 10.2373877 4.54744385 9.36157227 4.55578613 C6.96484375 4.51757812 6.96484375 4.51757812 3 4 C2.01 2.68 1.02 1.36 0 0 Z " fill="#B9C1CB" transform="translate(384,41)"/>
<path d="M0 0 C15.18 0 30.36 0 46 0 C45.01 1.32 44.02 2.64 43 4 C39.90113256 4.40453196 37.1626358 4.5607793 34.0625 4.53125 C33.18601807 4.5350769 32.30953613 4.53890381 31.40649414 4.54284668 C29.55386201 4.54556799 27.70119161 4.53819146 25.84863281 4.52148438 C23.01019771 4.50007691 20.17429372 4.52127761 17.3359375 4.546875 C15.53645274 4.54423176 13.73696955 4.53910686 11.9375 4.53125 C11.08744385 4.53934692 10.2373877 4.54744385 9.36157227 4.55578613 C6.96484375 4.51757812 6.96484375 4.51757812 3 4 C2.01 2.68 1.02 1.36 0 0 Z " fill="#B9C2CB" transform="translate(138,41)"/>
<path d="M0 0 C-1.60167082 3.48392631 -2.60218868 4.81056604 -6.1171875 6.484375 C-7.35726562 6.90203125 -8.59734375 7.3196875 -9.875 7.75 C-18.88001267 11.00205453 -27.42303937 15.90499111 -34 23 C-34.66 22.67 -35.32 22.34 -36 22 C-35.34 21.443125 -34.68 20.88625 -34 20.3125 C-33.34 19.549375 -32.68 18.78625 -32 18 C-32.07476563 17.20980469 -32.14953125 16.41960937 -32.2265625 15.60546875 C-32 13 -32 13 -29.6484375 10.9375 C-10.14596545 -0.60572928 -10.14596545 -0.60572928 0 0 Z " fill="#FF9E48" transform="translate(951,131)"/>
<path d="M0 0 C7.5854855 3.48158647 15.14006843 10.5941652 19 18 C18.81308594 18.75796875 18.62617187 19.5159375 18.43359375 20.296875 C17.76264324 24.47973766 19.89267457 27.09901759 22 30.625 C23.43789879 33.05909012 24.73954351 35.46158068 26 38 C25.67 38.99 25.34 39.98 25 41 C24.443125 39.88882813 23.88625 38.77765625 23.3125 37.6328125 C18.92421709 29.02282904 14.46631318 21.25754981 8 14 C6.89452867 12.70944975 5.79024854 11.41787759 4.6875 10.125 C3.14718044 8.33216904 1.60483466 6.54109832 0.0625 4.75 C-0.288125 4.1725 -0.63875 3.595 -1 3 C-0.67 2.01 -0.34 1.02 0 0 Z " fill="#9BA7B5" transform="translate(532,109)"/>
<path d="M0 0 C11.22 0 22.44 0 34 0 C30 5 30 5 27.22265625 5.64697266 C26.17980469 5.6526123 25.13695312 5.65825195 24.0625 5.6640625 C22.92039062 5.67050781 21.77828125 5.67695313 20.6015625 5.68359375 C18.81878906 5.65458984 18.81878906 5.65458984 17 5.625 C15.81148437 5.64433594 14.62296875 5.66367188 13.3984375 5.68359375 C11.68527344 5.67392578 11.68527344 5.67392578 9.9375 5.6640625 C8.89464844 5.65842285 7.85179687 5.6527832 6.77734375 5.64697266 C4 5 4 5 0 0 Z " fill="#FFAB61" transform="translate(694,141)"/>
<path d="M0 0 C10.56 0 21.12 0 32 0 C28 5 28 5 25.40625 5.64697266 C24.4471875 5.6526123 23.488125 5.65825195 22.5 5.6640625 C21.448125 5.67050781 20.39625 5.67695312 19.3125 5.68359375 C18.219375 5.66425781 17.12625 5.64492188 16 5.625 C14.3603125 5.65400391 14.3603125 5.65400391 12.6875 5.68359375 C11.1096875 5.67392578 11.1096875 5.67392578 9.5 5.6640625 C8.5409375 5.65842285 7.581875 5.6527832 6.59375 5.64697266 C4 5 4 5 0 0 Z " fill="#FFAD64" transform="translate(1003,42)"/>
<path d="M0 0 C0 11.55 0 23.1 0 35 C-1.32 34.34 -2.64 33.68 -4 33 C-4.07419134 28.78250781 -4.1286204 24.56536189 -4.16479492 20.34741211 C-4.17987589 18.91277448 -4.2003438 17.47818292 -4.22631836 16.04370117 C-4.26273437 13.98084141 -4.27973243 11.91859142 -4.29296875 9.85546875 C-4.3086792 8.61434326 -4.32438965 7.37321777 -4.34057617 6.09448242 C-4 3 -4 3 -2.54418945 1.0715332 C-1 0 -1 0 0 0 Z " fill="#EA7001" transform="translate(686,140)"/>
<path d="M0 0 C1.29873047 0.00644531 2.59746094 0.01289063 3.93554688 0.01953125 C5.30729432 0.0362419 6.67903911 0.05317179 8.05078125 0.0703125 C9.43423843 0.08034576 10.81770252 0.08947101 12.20117188 0.09765625 C15.58871577 0.12126283 18.97591197 0.15419213 22.36328125 0.1953125 C23.02328125 1.5153125 23.68328125 2.8353125 24.36328125 4.1953125 C13.14328125 4.1953125 1.92328125 4.1953125 -9.63671875 4.1953125 C-9.63671875 3.5353125 -9.63671875 2.8753125 -9.63671875 2.1953125 C-6.00365817 -0.22672788 -4.31852852 -0.03771641 0 0 Z " fill="#D86700" transform="translate(703.63671875,272.8046875)"/>
<path d="M0 0 C0 11.22 0 22.44 0 34 C-1.32 33.34 -2.64 32.68 -4 32 C-4.07420211 27.92497206 -4.1286257 23.85020608 -4.16479492 19.7746582 C-4.17987397 18.38852081 -4.2003405 17.00243106 -4.22631836 15.61645508 C-4.26273716 13.62341854 -4.27813018 11.63003277 -4.29296875 9.63671875 C-4.31653442 7.83787231 -4.31653442 7.83787231 -4.34057617 6.00268555 C-4 3 -4 3 -2.54418945 1.08520508 C-1 0 -1 0 0 0 Z " fill="#E96F00" transform="translate(686,43)"/>
<path d="M0 0 C-0.54156377 3.89925915 -1.57200685 5.94899662 -4 9 C-8.99455716 15.31495733 -13.04922367 21.98678758 -17 29 C-18.39195915 24.82412255 -16.82323219 22.86525224 -15 19 C-14.34 19 -13.68 19 -13 19 C-13.99 17.68 -14.98 16.36 -16 15 C-14.23000902 13.06172464 -12.45904239 11.12435656 -10.6875 9.1875 C-10.18798828 8.64029297 -9.68847656 8.09308594 -9.17382812 7.52929688 C-7.78777469 6.01473517 -6.39413878 4.50712253 -5 3 C-4.42894531 2.37738281 -3.85789062 1.75476563 -3.26953125 1.11328125 C-2 0 -2 0 0 0 Z " fill="#FF8D26" transform="translate(920,145)"/>
<path d="M0 0 C1.12148437 -0.01675781 2.24296875 -0.03351562 3.3984375 -0.05078125 C6.95203315 0.34932092 8.82568025 1.11193786 11.625 3.3125 C12.4375 6.5 12.4375 6.5 12.625 9.3125 C9.64270321 8.8864576 7.8051057 8.43906076 5.3125 6.6875 C0.62959821 4.29159676 -4.47535782 5.8834377 -9.375 7.3125 C-9.5625 4.9375 -9.5625 4.9375 -9.375 2.3125 C-5.84075288 -0.04366475 -4.18855898 0.0143772 0 0 Z " fill="#B3BBC6" transform="translate(1073.375,40.6875)"/>
<path d="M0 0 C0.33 0.66 0.66 1.32 1 2 C0.67 2.99 0.34 3.98 0 5 C-0.65226562 4.96519531 -1.30453125 4.93039063 -1.9765625 4.89453125 C-7.63716133 4.71920297 -10.95495959 5.24815978 -16 8 C-19.375 8.1875 -19.375 8.1875 -22 8 C-22.33 7.34 -22.66 6.68 -23 6 C-15.73366762 -0.45896212 -9.46774436 -0.72725206 0 0 Z " fill="#B3BCC6" transform="translate(1143,41)"/>
<path d="M0 0 C1.625 2 1.625 2 3 4 C2.12988281 4.56267578 2.12988281 4.56267578 1.2421875 5.13671875 C-5.83018536 9.76993992 -11.73186516 14.33735888 -17 21 C-17 17.42808296 -16.41190492 17.02077328 -14.0625 14.5 C-11.92527675 12.19604302 -11.01747885 11.05243655 -10 8 C-10.66 7.67 -11.32 7.34 -12 7 C-10.3790787 5.82767315 -8.75313167 4.6622923 -7.125 3.5 C-6.22007812 2.8503125 -5.31515625 2.200625 -4.3828125 1.53125 C-2 0 -2 0 0 0 Z " fill="#FF9536" transform="translate(618,52)"/>
<path d="M0 0 C-0.58019513 3.36513174 -1.63451473 4.63451473 -4 7 C-4.12503906 7.58523437 -4.25007812 8.17046875 -4.37890625 8.7734375 C-5.19286852 11.69141544 -6.67475062 13.66961106 -8.4375 16.125 C-9.05496094 16.99382812 -9.67242188 17.86265625 -10.30859375 18.7578125 C-12 21 -12 21 -14 23 C-13.56474778 20.38848668 -13.14968202 18.27441704 -11.875 15.9375 C-11.441875 14.9784375 -11.441875 14.9784375 -11 14 C-11.23460937 13.40832031 -11.46921875 12.81664062 -11.7109375 12.20703125 C-12 10 -12 10 -10.234375 7.421875 C-9.41453125 6.54015625 -8.5946875 5.6584375 -7.75 4.75 C-6.94046875 3.85796875 -6.1309375 2.9659375 -5.296875 2.046875 C-3 0 -3 0 0 0 Z " fill="#FF881D" transform="translate(768,153)"/>
<path d="M0 0 C1.44037669 0.93307421 2.87718985 1.87165077 4.3125 2.8125 C5.11300781 3.33457031 5.91351562 3.85664063 6.73828125 4.39453125 C8.7237402 5.80389849 10.3491852 7.22096657 12 9 C11.34 9 10.68 9 10 9 C11.32 11.64 12.64 14.28 14 17 C10.45892576 15.22946288 8.31676081 13.67868114 5.4375 11.0625 C4.29087891 10.02802734 4.29087891 10.02802734 3.12109375 8.97265625 C1.37468853 7.34846723 -0.32998738 5.70202564 -2 4 C-1.34 2.68 -0.68 1.36 0 0 Z " fill="#FF9B41" transform="translate(849,146)"/>
<path d="M0 0 C4.38718932 0.72641915 6.15562016 2.8347599 8.88671875 6.17578125 C10 8 10 8 9.625 10.4375 C9.41875 11.283125 9.2125 12.12875 9 13 C9.91036371 15.15679626 10.99625016 17.11865982 12.1875 19.1328125 C13 21 13 21 12 24 C11.60167969 23.26394531 11.20335937 22.52789062 10.79296875 21.76953125 C10.26316406 20.79371094 9.73335937 19.81789062 9.1875 18.8125 C8.40439453 17.36810547 8.40439453 17.36810547 7.60546875 15.89453125 C5.61844031 12.31207852 3.52756754 8.82066061 1.3125 5.375 C0 3 0 3 0 0 Z " fill="#FF8920" transform="translate(859,155)"/>
<path d="M0 0 C0.33 0 0.66 0 1 0 C1 1.98 1 3.96 1 6 C2.32 6.33 3.64 6.66 5 7 C5 7.99 5 8.98 5 10 C3.35 9.34 1.7 8.68 0 8 C-9.00073247 16.86732176 -9.00073247 16.86732176 -17.46484375 26.2421875 C-19.84458612 28.96708334 -22.41123494 31.47437555 -25 34 C-25.66 33.67 -26.32 33.34 -27 33 C-26.43152344 32.443125 -25.86304687 31.88625 -25.27734375 31.3125 C-20.96248166 27.04806201 -16.82611793 22.73090608 -12.90234375 18.10546875 C-9.82012328 14.69414055 -6.41862423 11.60628517 -3.0390625 8.4921875 C-0.68022073 5.60915867 -0.28704473 3.66779373 0 0 Z " fill="#A4AFBB" transform="translate(57,214)"/>
<path d="M0 0 C0.33 0.66 0.66 1.32 1 2 C-0.29296875 4.49609375 -0.29296875 4.49609375 -2.1875 7.4375 C-2.79980469 8.40558594 -3.41210938 9.37367188 -4.04296875 10.37109375 C-6.59560891 13.80008941 -8.58848919 15.6471223 -12.75 16.6875 C-13.4925 16.790625 -14.235 16.89375 -15 17 C-15.33 16.01 -15.66 15.02 -16 14 C-14.93283928 12.79794536 -13.84561663 11.61367667 -12.75 10.4375 C-11.84507812 9.44556641 -11.84507812 9.44556641 -10.921875 8.43359375 C-10.28765625 7.96050781 -9.6534375 7.48742187 -9 7 C-7.68 7.33 -6.36 7.66 -5 8 C-3.35 5.36 -1.7 2.72 0 0 Z " fill="#FF8B23" transform="translate(1003,221)"/>
<path d="M0 0 C7.05843338 0.25208691 10.71459055 2.40338061 16 7 C15.34 8.32 14.68 9.64 14 11 C10.21908383 9.65686815 7.34348084 7.97035316 4.1875 5.5 C3.39730469 4.8915625 2.60710938 4.283125 1.79296875 3.65625 C1.20128906 3.1096875 0.60960937 2.563125 0 2 C0 1.34 0 0.68 0 0 Z " fill="#FF9D46" transform="translate(931,233)"/>
<path d="M0 0 C-1.52804602 3.10771521 -2.50469694 4.73295407 -5.59375 6.3984375 C-6.5528125 6.72070312 -7.511875 7.04296875 -8.5 7.375 C-9.4590625 7.71273437 -10.418125 8.05046875 -11.40625 8.3984375 C-14 9 -14 9 -17 8 C-13.0604438 1.92651752 -7.22305474 -0.67716138 0 0 Z " fill="#FFA859" transform="translate(951,131)"/>
<path d="M0 0 C1.51553092 3.97450493 0.49888623 7.20481149 -0.4375 11.25 C-0.72496094 12.51328125 -1.01242187 13.7765625 -1.30859375 15.078125 C-1.53675781 16.04234375 -1.76492188 17.0065625 -2 18 C-3.32 18.33 -4.64 18.66 -6 19 C-7.469744 16.060512 -6.55990475 14.15655205 -5.8125 11 C-5.57144531 9.9275 -5.33039063 8.855 -5.08203125 7.75 C-4 5 -4 5 -1.88671875 3.625 C-0.95279297 3.315625 -0.95279297 3.315625 0 3 C0 2.01 0 1.02 0 0 Z " fill="#8692A1" transform="translate(1079,90)"/>
<path d="M0 0 C5.61 0 11.22 0 17 0 C12 5 12 5 9.6484375 5.6640625 C8.89820313 5.65117188 8.14796875 5.63828125 7.375 5.625 C6.61960937 5.63789062 5.86421875 5.65078125 5.0859375 5.6640625 C3 5 3 5 0 0 Z " fill="#B8C0CA" transform="translate(1085,41)"/>
<path d="M0 0 C2.5625 1.5 2.5625 1.5 4 3 C0.76085771 5.15942819 -0.24859733 5.27232978 -4 5.25 C-4.86625 5.25515625 -5.7325 5.2603125 -6.625 5.265625 C-9 5 -9 5 -12 3 C-12 2.34 -12 1.68 -12 1 C-7.96733389 -0.34422204 -4.21994677 -0.45703395 0 0 Z " fill="#B2BBC5" transform="translate(1071,109)"/>
<path d="M0 0 C0.99 1.32 1.98 2.64 3 4 C-0.9700218 8.21814817 -5.30840284 11.61227103 -10 15 C-8.47639094 11.89978679 -6.80178638 8.94837771 -5 6 C-5.66 5.67 -6.32 5.34 -7 5 C-4.69 3.35 -2.38 1.7 0 0 Z " fill="#FF983C" transform="translate(773,147)"/>
<path d="M0 0 C3.875 4.75 3.875 4.75 5 7 C6.32 6.67 7.64 6.34 9 6 C10.65 7.98 12.3 9.96 14 12 C13.67 12.66 13.34 13.32 13 14 C9.03469416 13.44485718 6.90089011 13.01618841 4.19921875 9.96875 C0 3.7951969 0 3.7951969 0 0 Z " fill="#FF881C" transform="translate(923,221)"/>
<path d="M0 0 C-1.76981592 2.46235259 -3.13229297 3.83710915 -6.1640625 4.40625 C-10.67412675 4.58253916 -10.67412675 4.58253916 -13 4 C-14.77734375 1.96875 -14.77734375 1.96875 -16 0 C-13.89651926 -0.19504458 -11.79217415 -0.38078496 -9.6875 -0.5625 C-8.51574219 -0.66691406 -7.34398437 -0.77132812 -6.13671875 -0.87890625 C-3 -1 -3 -1 0 0 Z " fill="#B7BFC9" transform="translate(1125,42)"/>
<path d="M0 0 C0 0.66 0 1.32 0 2 C0.99 2.33 1.98 2.66 3 3 C-1.78866769 5.39433385 -4.64395089 6.65782473 -10 5 C-10.33 4.34 -10.66 3.68 -11 3 C-7.25593545 0.50395696 -4.45848315 0 0 0 Z " fill="#B3BBC6" transform="translate(1078,82)"/>
<path d="M0 0 C4.29 0 8.58 0 13 0 C12.67 0.66 12.34 1.32 12 2 C11.34 2 10.68 2 10 2 C9.67 2.99 9.34 3.98 9 5 C6.1875 5.3125 6.1875 5.3125 3 5 C2.01 3.35 1.02 1.7 0 0 Z " fill="#B5BEC8" transform="translate(1050,104)"/>
<path d="M0 0 C0.33 0 0.66 0 1 0 C1.125 5.75 1.125 5.75 0 8 C3.63 8 7.26 8 11 8 C11 8.33 11 8.66 11 9 C9.77023437 9.07347656 9.77023437 9.07347656 8.515625 9.1484375 C7.43796875 9.22320312 6.3603125 9.29796875 5.25 9.375 C3.64898438 9.47941406 3.64898438 9.47941406 2.015625 9.5859375 C-1.28466713 9.87451003 -1.28466713 9.87451003 -5 12 C-4.34 9.03 -3.68 6.06 -3 3 C-2.01 3 -1.02 3 0 3 C0 2.01 0 1.02 0 0 Z " fill="#838F9F" transform="translate(1130,54)"/>
<path d="M0 0 C-1.44565982 3.11808981 -3.20806349 5.74062634 -5.25 8.5 C-9.17979277 14.0198347 -12.12804771 19.87737643 -15 26 C-16 23 -16 23 -14.55859375 19.70703125 C-13.86412361 18.40209135 -13.15631696 17.10418847 -12.4375 15.8125 C-12.07124512 15.14210693 -11.70499023 14.47171387 -11.32763672 13.78100586 C-3.66503019 0 -3.66503019 0 0 0 Z " fill="#9CA7B5" transform="translate(219,123)"/>
<path d="M0 0 C0.66 0.33 1.32 0.66 2 1 C0.54955729 5.10958767 -1.51110752 8.43258745 -4 12 C-5.32 11.01 -6.64 10.02 -8 9 C-5.36 6.03 -2.72 3.06 0 0 Z " fill="#FF8619" transform="translate(912,151)"/>
<path d="M0 0 C3.57509616 3.29752659 6.10807258 7.33222224 8.8671875 11.30859375 C11.01490955 14.01881443 13.22494901 15.95497113 16 18 C15.67 18.66 15.34 19.32 15 20 C8.36411483 14.76202972 1.69598401 8.6358726 0 0 Z " fill="#9BA7B4" transform="translate(239,204)"/>
<path d="M0 0 C3.26954202 0.56371414 4.82575883 1.49962266 7 4 C6.34 4 5.68 4 5 4 C6.32 6.64 7.64 9.28 9 12 C5.23312136 10.11656068 4.20578354 9.30867531 2 6 C2.33 5.34 2.66 4.68 3 4 C2.01 3.67 1.02 3.34 0 3 C0 2.01 0 1.02 0 0 Z " fill="#FF9230" transform="translate(854,151)"/>
<path d="M0 0 C-0.50522222 4.37859255 -3.17827222 6.81651224 -6 10 C-6.66 9.34 -7.32 8.68 -8 8 C-7.80944634 5.14169516 -6.97144591 3.96573509 -5.125 1.75 C-3 0 -3 0 0 0 Z " fill="#FF8A21" transform="translate(608,60)"/>
<path d="M0 0 C0 1.32 0 2.64 0 4 C-0.66 4 -1.32 4 -2 4 C-1.67 4.99 -1.34 5.98 -1 7 C-3.97 9.475 -3.97 9.475 -7 12 C-7.66 11.67 -8.32 11.34 -9 11 C-8.34 10.443125 -7.68 9.88625 -7 9.3125 C-4.59180472 6.52802421 -4.90699709 5.53411046 -5 2 C-2 0 -2 0 0 0 Z " fill="#FF9739" transform="translate(924,142)"/>
<path d="M0 0 C1.32 0.33 2.64 0.66 4 1 C4.33 2.98 4.66 4.96 5 7 C2.625 6.6875 2.625 6.6875 0 6 C-0.66 5.01 -1.32 4.02 -2 3 C-1.34 3 -0.68 3 0 3 C0 2.01 0 1.02 0 0 Z " fill="#A6B0BD" transform="translate(1081,43)"/>
<path d="M0 0 C1.27875 0.103125 2.5575 0.20625 3.875 0.3125 C4.95394531 0.39951172 4.95394531 0.39951172 6.0546875 0.48828125 C8 1 8 1 10 4 C9.67 4.66 9.34 5.32 9 6 C2.35384615 4.52307692 2.35384615 4.52307692 0.5625 1.875 C0.376875 1.25625 0.19125 0.6375 0 0 Z " fill="#FF9331" transform="translate(931,233)"/>
<path d="M0 0 C0.99 0 1.98 0 3 0 C3 0.66 3 1.32 3 2 C4.65 1.34 6.3 0.68 8 0 C5.6875 2.5 5.6875 2.5 3 5 C2.01 5 1.02 5 0 5 C-0.5625 3.0625 -0.5625 3.0625 -1 1 C-0.67 0.67 -0.34 0.34 0 0 Z " fill="#FF9A40" transform="translate(985,236)"/>
<path d="M0 0 C1.625 2 1.625 2 3 4 C0.6875 5.5625 0.6875 5.5625 -2 7 C-2.99 6.67 -3.98 6.34 -5 6 C-4.01 5.67 -3.02 5.34 -2 5 C-2.66 3.68 -3.32 2.36 -4 1 C-2 0 -2 0 0 0 Z " fill="#FF9D44" transform="translate(618,52)"/>
<path d="M0 0 C1.32 1.32 2.64 2.64 4 4 C3.34 5.32 2.68 6.64 2 8 C0.4375 6.8125 0.4375 6.8125 -1 5 C-0.6875 2.3125 -0.6875 2.3125 0 0 Z " fill="#FF7E0B" transform="translate(865,159)"/>
<path d="M0 0 C1.32 1.32 2.64 2.64 4 4 C3.34 5.32 2.68 6.64 2 8 C0 6 0 6 -0.125 2.875 C-0.08375 1.92625 -0.0425 0.9775 0 0 Z " fill="#95A1B0" transform="translate(1085,42)"/>
<path d="M0 0 C1.32 0.99 2.64 1.98 4 3 C3.01 4.485 3.01 4.485 2 6 C1.01 5.67 0.02 5.34 -1 5 C-0.67 3.35 -0.34 1.7 0 0 Z " fill="#A7B1BD" transform="translate(337,106)"/>
<path d="M0 0 C2.64 1.98 5.28 3.96 8 6 C7.67 6.66 7.34 7.32 7 8 C5.8274869 7.04882866 4.66212985 6.08882991 3.5 5.125 C2.8503125 4.59132812 2.200625 4.05765625 1.53125 3.5078125 C1.0259375 3.01023438 0.520625 2.51265625 0 2 C0 1.34 0 0.68 0 0 Z " fill="#A5AFBC" transform="translate(247,216)"/>
<path d="M0 0 C0.66 0.66 1.32 1.32 2 2 C1.625 4.625 1.625 4.625 1 7 C-0.32 6.01 -1.64 5.02 -3 4 C-2.01 2.68 -1.02 1.36 0 0 Z " fill="#FF7D07" transform="translate(907,156)"/>
</svg>
